%TF.GenerationSoftware,KiCad,Pcbnew,8.0.3*%
%TF.CreationDate,2024-08-08T19:12:20+01:00*%
%TF.ProjectId,FCPC Breakout PCB,46435043-2042-4726-9561-6b6f75742050,V1.1*%
%TF.SameCoordinates,Original*%
%TF.FileFunction,Legend,Top*%
%TF.FilePolarity,Positive*%
%FSLAX46Y46*%
G04 Gerber Fmt 4.6, Leading zero omitted, Abs format (unit mm)*
G04 Created by KiCad (PCBNEW 8.0.3) date 2024-08-08 19:12:20*
%MOMM*%
%LPD*%
G01*
G04 APERTURE LIST*
G04 Aperture macros list*
%AMRoundRect*
0 Rectangle with rounded corners*
0 $1 Rounding radius*
0 $2 $3 $4 $5 $6 $7 $8 $9 X,Y pos of 4 corners*
0 Add a 4 corners polygon primitive as box body*
4,1,4,$2,$3,$4,$5,$6,$7,$8,$9,$2,$3,0*
0 Add four circle primitives for the rounded corners*
1,1,$1+$1,$2,$3*
1,1,$1+$1,$4,$5*
1,1,$1+$1,$6,$7*
1,1,$1+$1,$8,$9*
0 Add four rect primitives between the rounded corners*
20,1,$1+$1,$2,$3,$4,$5,0*
20,1,$1+$1,$4,$5,$6,$7,0*
20,1,$1+$1,$6,$7,$8,$9,0*
20,1,$1+$1,$8,$9,$2,$3,0*%
G04 Aperture macros list end*
%ADD10C,0.150000*%
%ADD11C,0.120000*%
%ADD12C,0.000000*%
%ADD13RoundRect,0.250000X-0.650000X-1.550000X0.650000X-1.550000X0.650000X1.550000X-0.650000X1.550000X0*%
%ADD14O,1.800000X3.600000*%
%ADD15RoundRect,0.250000X-0.475000X0.337500X-0.475000X-0.337500X0.475000X-0.337500X0.475000X0.337500X0*%
%ADD16RoundRect,0.250000X0.450000X-0.350000X0.450000X0.350000X-0.450000X0.350000X-0.450000X-0.350000X0*%
%ADD17C,3.200000*%
%ADD18R,1.700000X1.700000*%
%ADD19O,1.700000X1.700000*%
G04 APERTURE END LIST*
D10*
X154883466Y-121512819D02*
X154883466Y-122227104D01*
X154883466Y-122227104D02*
X154835847Y-122369961D01*
X154835847Y-122369961D02*
X154740609Y-122465200D01*
X154740609Y-122465200D02*
X154597752Y-122512819D01*
X154597752Y-122512819D02*
X154502514Y-122512819D01*
X155264419Y-121512819D02*
X155883466Y-121512819D01*
X155883466Y-121512819D02*
X155550133Y-121893771D01*
X155550133Y-121893771D02*
X155692990Y-121893771D01*
X155692990Y-121893771D02*
X155788228Y-121941390D01*
X155788228Y-121941390D02*
X155835847Y-121989009D01*
X155835847Y-121989009D02*
X155883466Y-122084247D01*
X155883466Y-122084247D02*
X155883466Y-122322342D01*
X155883466Y-122322342D02*
X155835847Y-122417580D01*
X155835847Y-122417580D02*
X155788228Y-122465200D01*
X155788228Y-122465200D02*
X155692990Y-122512819D01*
X155692990Y-122512819D02*
X155407276Y-122512819D01*
X155407276Y-122512819D02*
X155312038Y-122465200D01*
X155312038Y-122465200D02*
X155264419Y-122417580D01*
X119678280Y-119325566D02*
X119725900Y-119373185D01*
X119725900Y-119373185D02*
X119773519Y-119516042D01*
X119773519Y-119516042D02*
X119773519Y-119611280D01*
X119773519Y-119611280D02*
X119725900Y-119754137D01*
X119725900Y-119754137D02*
X119630661Y-119849375D01*
X119630661Y-119849375D02*
X119535423Y-119896994D01*
X119535423Y-119896994D02*
X119344947Y-119944613D01*
X119344947Y-119944613D02*
X119202090Y-119944613D01*
X119202090Y-119944613D02*
X119011614Y-119896994D01*
X119011614Y-119896994D02*
X118916376Y-119849375D01*
X118916376Y-119849375D02*
X118821138Y-119754137D01*
X118821138Y-119754137D02*
X118773519Y-119611280D01*
X118773519Y-119611280D02*
X118773519Y-119516042D01*
X118773519Y-119516042D02*
X118821138Y-119373185D01*
X118821138Y-119373185D02*
X118868757Y-119325566D01*
X118868757Y-118944613D02*
X118821138Y-118896994D01*
X118821138Y-118896994D02*
X118773519Y-118801756D01*
X118773519Y-118801756D02*
X118773519Y-118563661D01*
X118773519Y-118563661D02*
X118821138Y-118468423D01*
X118821138Y-118468423D02*
X118868757Y-118420804D01*
X118868757Y-118420804D02*
X118963995Y-118373185D01*
X118963995Y-118373185D02*
X119059233Y-118373185D01*
X119059233Y-118373185D02*
X119202090Y-118420804D01*
X119202090Y-118420804D02*
X119773519Y-118992232D01*
X119773519Y-118992232D02*
X119773519Y-118373185D01*
X108299080Y-119274766D02*
X108346700Y-119322385D01*
X108346700Y-119322385D02*
X108394319Y-119465242D01*
X108394319Y-119465242D02*
X108394319Y-119560480D01*
X108394319Y-119560480D02*
X108346700Y-119703337D01*
X108346700Y-119703337D02*
X108251461Y-119798575D01*
X108251461Y-119798575D02*
X108156223Y-119846194D01*
X108156223Y-119846194D02*
X107965747Y-119893813D01*
X107965747Y-119893813D02*
X107822890Y-119893813D01*
X107822890Y-119893813D02*
X107632414Y-119846194D01*
X107632414Y-119846194D02*
X107537176Y-119798575D01*
X107537176Y-119798575D02*
X107441938Y-119703337D01*
X107441938Y-119703337D02*
X107394319Y-119560480D01*
X107394319Y-119560480D02*
X107394319Y-119465242D01*
X107394319Y-119465242D02*
X107441938Y-119322385D01*
X107441938Y-119322385D02*
X107489557Y-119274766D01*
X108394319Y-118322385D02*
X108394319Y-118893813D01*
X108394319Y-118608099D02*
X107394319Y-118608099D01*
X107394319Y-118608099D02*
X107537176Y-118703337D01*
X107537176Y-118703337D02*
X107632414Y-118798575D01*
X107632414Y-118798575D02*
X107680033Y-118893813D01*
X124855366Y-121545719D02*
X124855366Y-122260004D01*
X124855366Y-122260004D02*
X124807747Y-122402861D01*
X124807747Y-122402861D02*
X124712509Y-122498100D01*
X124712509Y-122498100D02*
X124569652Y-122545719D01*
X124569652Y-122545719D02*
X124474414Y-122545719D01*
X125760128Y-121879052D02*
X125760128Y-122545719D01*
X125522033Y-121498100D02*
X125283938Y-122212385D01*
X125283938Y-122212385D02*
X125902985Y-122212385D01*
X113526966Y-121545719D02*
X113526966Y-122260004D01*
X113526966Y-122260004D02*
X113479347Y-122402861D01*
X113479347Y-122402861D02*
X113384109Y-122498100D01*
X113384109Y-122498100D02*
X113241252Y-122545719D01*
X113241252Y-122545719D02*
X113146014Y-122545719D01*
X114479347Y-121545719D02*
X114003157Y-121545719D01*
X114003157Y-121545719D02*
X113955538Y-122021909D01*
X113955538Y-122021909D02*
X114003157Y-121974290D01*
X114003157Y-121974290D02*
X114098395Y-121926671D01*
X114098395Y-121926671D02*
X114336490Y-121926671D01*
X114336490Y-121926671D02*
X114431728Y-121974290D01*
X114431728Y-121974290D02*
X114479347Y-122021909D01*
X114479347Y-122021909D02*
X114526966Y-122117147D01*
X114526966Y-122117147D02*
X114526966Y-122355242D01*
X114526966Y-122355242D02*
X114479347Y-122450480D01*
X114479347Y-122450480D02*
X114431728Y-122498100D01*
X114431728Y-122498100D02*
X114336490Y-122545719D01*
X114336490Y-122545719D02*
X114098395Y-122545719D01*
X114098395Y-122545719D02*
X114003157Y-122498100D01*
X114003157Y-122498100D02*
X113955538Y-122450480D01*
X147039219Y-125642666D02*
X146563028Y-125975999D01*
X147039219Y-126214094D02*
X146039219Y-126214094D01*
X146039219Y-126214094D02*
X146039219Y-125833142D01*
X146039219Y-125833142D02*
X146086838Y-125737904D01*
X146086838Y-125737904D02*
X146134457Y-125690285D01*
X146134457Y-125690285D02*
X146229695Y-125642666D01*
X146229695Y-125642666D02*
X146372552Y-125642666D01*
X146372552Y-125642666D02*
X146467790Y-125690285D01*
X146467790Y-125690285D02*
X146515409Y-125737904D01*
X146515409Y-125737904D02*
X146563028Y-125833142D01*
X146563028Y-125833142D02*
X146563028Y-126214094D01*
X147039219Y-124690285D02*
X147039219Y-125261713D01*
X147039219Y-124975999D02*
X146039219Y-124975999D01*
X146039219Y-124975999D02*
X146182076Y-125071237D01*
X146182076Y-125071237D02*
X146277314Y-125166475D01*
X146277314Y-125166475D02*
X146324933Y-125261713D01*
X186368966Y-121545719D02*
X186368966Y-122260004D01*
X186368966Y-122260004D02*
X186321347Y-122402861D01*
X186321347Y-122402861D02*
X186226109Y-122498100D01*
X186226109Y-122498100D02*
X186083252Y-122545719D01*
X186083252Y-122545719D02*
X185988014Y-122545719D01*
X187368966Y-122545719D02*
X186797538Y-122545719D01*
X187083252Y-122545719D02*
X187083252Y-121545719D01*
X187083252Y-121545719D02*
X186988014Y-121688576D01*
X186988014Y-121688576D02*
X186892776Y-121783814D01*
X186892776Y-121783814D02*
X186797538Y-121831433D01*
X147039219Y-121324666D02*
X146563028Y-121657999D01*
X147039219Y-121896094D02*
X146039219Y-121896094D01*
X146039219Y-121896094D02*
X146039219Y-121515142D01*
X146039219Y-121515142D02*
X146086838Y-121419904D01*
X146086838Y-121419904D02*
X146134457Y-121372285D01*
X146134457Y-121372285D02*
X146229695Y-121324666D01*
X146229695Y-121324666D02*
X146372552Y-121324666D01*
X146372552Y-121324666D02*
X146467790Y-121372285D01*
X146467790Y-121372285D02*
X146515409Y-121419904D01*
X146515409Y-121419904D02*
X146563028Y-121515142D01*
X146563028Y-121515142D02*
X146563028Y-121896094D01*
X146134457Y-120943713D02*
X146086838Y-120896094D01*
X146086838Y-120896094D02*
X146039219Y-120800856D01*
X146039219Y-120800856D02*
X146039219Y-120562761D01*
X146039219Y-120562761D02*
X146086838Y-120467523D01*
X146086838Y-120467523D02*
X146134457Y-120419904D01*
X146134457Y-120419904D02*
X146229695Y-120372285D01*
X146229695Y-120372285D02*
X146324933Y-120372285D01*
X146324933Y-120372285D02*
X146467790Y-120419904D01*
X146467790Y-120419904D02*
X147039219Y-120991332D01*
X147039219Y-120991332D02*
X147039219Y-120372285D01*
X168949866Y-121563619D02*
X168949866Y-122277904D01*
X168949866Y-122277904D02*
X168902247Y-122420761D01*
X168902247Y-122420761D02*
X168807009Y-122516000D01*
X168807009Y-122516000D02*
X168664152Y-122563619D01*
X168664152Y-122563619D02*
X168568914Y-122563619D01*
X169378438Y-121658857D02*
X169426057Y-121611238D01*
X169426057Y-121611238D02*
X169521295Y-121563619D01*
X169521295Y-121563619D02*
X169759390Y-121563619D01*
X169759390Y-121563619D02*
X169854628Y-121611238D01*
X169854628Y-121611238D02*
X169902247Y-121658857D01*
X169902247Y-121658857D02*
X169949866Y-121754095D01*
X169949866Y-121754095D02*
X169949866Y-121849333D01*
X169949866Y-121849333D02*
X169902247Y-121992190D01*
X169902247Y-121992190D02*
X169330819Y-122563619D01*
X169330819Y-122563619D02*
X169949866Y-122563619D01*
D11*
%TO.C,J3*%
X150516800Y-122758000D02*
X152516800Y-122758000D01*
X150516800Y-124008000D02*
X150516800Y-122758000D01*
X150906800Y-123148000D02*
X150906800Y-130618000D01*
X150906800Y-130618000D02*
X159526800Y-130618000D01*
X151966800Y-124108000D02*
X154966800Y-124108000D01*
X151966800Y-125458000D02*
X152716800Y-125458000D01*
X151966800Y-129758000D02*
X151966800Y-125458000D01*
X152216800Y-125108000D02*
X151966800Y-124108000D01*
X152716800Y-125108000D02*
X152216800Y-125108000D01*
X152716800Y-125458000D02*
X152716800Y-125108000D01*
X152716800Y-129758000D02*
X151966800Y-129758000D01*
X154216800Y-125108000D02*
X154216800Y-125458000D01*
X154216800Y-125458000D02*
X154966800Y-125458000D01*
X154716800Y-125108000D02*
X154216800Y-125108000D01*
X154966800Y-124108000D02*
X154716800Y-125108000D01*
X154966800Y-125458000D02*
X154966800Y-129758000D01*
X154966800Y-129758000D02*
X154216800Y-129758000D01*
X155466800Y-124108000D02*
X158466800Y-124108000D01*
X155466800Y-125458000D02*
X156216800Y-125458000D01*
X155466800Y-129758000D02*
X155466800Y-125458000D01*
X155716800Y-125108000D02*
X155466800Y-124108000D01*
X156216800Y-125108000D02*
X155716800Y-125108000D01*
X156216800Y-125458000D02*
X156216800Y-125108000D01*
X156216800Y-129758000D02*
X155466800Y-129758000D01*
X157716800Y-125108000D02*
X157716800Y-125458000D01*
X157716800Y-125458000D02*
X158466800Y-125458000D01*
X158216800Y-125108000D02*
X157716800Y-125108000D01*
X158466800Y-124108000D02*
X158216800Y-125108000D01*
X158466800Y-125458000D02*
X158466800Y-129758000D01*
X158466800Y-129758000D02*
X157716800Y-129758000D01*
X159526800Y-123148000D02*
X150906800Y-123148000D01*
X159526800Y-130618000D02*
X159526800Y-123148000D01*
X152716800Y-129758000D02*
G75*
G02*
X154216447Y-129757844I750000J-1700000D01*
G01*
X156216800Y-129758000D02*
G75*
G02*
X157716447Y-129757844I750000J-1700000D01*
G01*
D12*
%TO.C,kibuzzard-6696DEDD*%
G36*
X127684976Y-130968904D02*
G01*
X127737964Y-131029001D01*
X127765105Y-131115592D01*
X127772859Y-131216400D01*
X127770436Y-131273427D01*
X127763166Y-131325608D01*
X127730856Y-131411553D01*
X127671406Y-131468419D01*
X127580291Y-131489098D01*
X127566074Y-131489098D01*
X127551858Y-131487805D01*
X127551858Y-130950164D01*
X127575121Y-130946933D01*
X127598385Y-130946287D01*
X127684976Y-130968904D01*
G37*
G36*
X128306113Y-130701342D02*
G01*
X128404627Y-130731226D01*
X128495418Y-130779755D01*
X128574998Y-130845064D01*
X128640306Y-130924643D01*
X128688835Y-131015435D01*
X128718719Y-131113949D01*
X128728810Y-131216400D01*
X128718719Y-131318851D01*
X128688835Y-131417365D01*
X128640306Y-131508157D01*
X128574998Y-131587736D01*
X128495418Y-131653045D01*
X128404627Y-131701574D01*
X128306113Y-131731458D01*
X128203662Y-131741548D01*
X127934410Y-131741548D01*
X127563490Y-131741548D01*
X127135703Y-131741548D01*
X126392569Y-131741548D01*
X126065590Y-131741548D01*
X125796338Y-131741548D01*
X125693887Y-131731458D01*
X125595373Y-131701574D01*
X125504582Y-131653045D01*
X125425002Y-131587736D01*
X125359694Y-131508157D01*
X125311165Y-131417365D01*
X125281281Y-131318851D01*
X125271190Y-131216400D01*
X126065590Y-131216400D01*
X126071406Y-131313492D01*
X126088853Y-131397983D01*
X126116963Y-131469712D01*
X126154766Y-131528516D01*
X126201777Y-131574397D01*
X126257512Y-131607353D01*
X126321325Y-131627224D01*
X126392569Y-131633847D01*
X126471567Y-131630616D01*
X126537964Y-131620923D01*
X126552718Y-131617046D01*
X126736349Y-131617046D01*
X126879806Y-131617046D01*
X126879806Y-131085867D01*
X126927841Y-131174540D01*
X126973721Y-131263070D01*
X127017448Y-131351457D01*
X127059020Y-131439843D01*
X127098438Y-131528373D01*
X127135703Y-131617046D01*
X127263651Y-131617046D01*
X127263651Y-130827385D01*
X127392892Y-130827385D01*
X127392892Y-131607999D01*
X127480129Y-131622862D01*
X127563490Y-131627385D01*
X127641519Y-131621731D01*
X127712763Y-131604768D01*
X127775929Y-131575528D01*
X127829725Y-131533040D01*
X127873506Y-131476658D01*
X127906624Y-131405738D01*
X127927464Y-131319308D01*
X127934410Y-131216400D01*
X127928110Y-131115754D01*
X127909208Y-131030940D01*
X127878998Y-130960826D01*
X127838772Y-130904284D01*
X127788530Y-130861150D01*
X127728271Y-130831263D01*
X127659612Y-130813815D01*
X127584168Y-130807999D01*
X127494992Y-130811877D01*
X127392892Y-130827385D01*
X127263651Y-130827385D01*
X127263651Y-130817046D01*
X127120194Y-130817046D01*
X127120194Y-131309453D01*
X127097415Y-131259049D01*
X127070436Y-131200891D01*
X127040065Y-131137886D01*
X127007108Y-131072943D01*
X126972375Y-131006868D01*
X126936672Y-130940471D01*
X126900485Y-130876335D01*
X126864297Y-130817046D01*
X126736349Y-130817046D01*
X126736349Y-131617046D01*
X126552718Y-131617046D01*
X126626494Y-131597660D01*
X126626494Y-131198306D01*
X126467528Y-131198306D01*
X126467528Y-131490390D01*
X126436511Y-131494268D01*
X126405493Y-131495560D01*
X126328271Y-131478597D01*
X126272375Y-131427709D01*
X126247245Y-131374074D01*
X126232167Y-131303637D01*
X126227141Y-131216400D01*
X126229887Y-131157111D01*
X126238126Y-131103314D01*
X126274313Y-131015431D01*
X126338288Y-130957919D01*
X126433926Y-130937240D01*
X126519225Y-130951457D01*
X126589015Y-130983767D01*
X126630372Y-130857111D01*
X126603877Y-130841602D01*
X126559289Y-130822216D01*
X126495315Y-130806061D01*
X126411955Y-130798953D01*
X126341842Y-130805576D01*
X126276252Y-130825447D01*
X126217124Y-130858565D01*
X126166397Y-130904930D01*
X126124717Y-130964219D01*
X126092730Y-131036109D01*
X126072375Y-131120277D01*
X126065590Y-131216400D01*
X125271190Y-131216400D01*
X125281281Y-131113949D01*
X125311165Y-131015435D01*
X125359694Y-130924643D01*
X125425002Y-130845064D01*
X125504582Y-130779755D01*
X125595373Y-130731226D01*
X125693887Y-130701342D01*
X125796338Y-130691252D01*
X126065590Y-130691252D01*
X127934410Y-130691252D01*
X128203662Y-130691252D01*
X128306113Y-130701342D01*
G37*
D11*
%TO.C,C2*%
X120107700Y-118897648D02*
X120107700Y-119420152D01*
X121577700Y-118897648D02*
X121577700Y-119420152D01*
%TO.C,C1*%
X108728500Y-118897648D02*
X108728500Y-119420152D01*
X110198500Y-118897648D02*
X110198500Y-119420152D01*
%TO.C,J4*%
X120488700Y-122790900D02*
X122488700Y-122790900D01*
X120488700Y-124040900D02*
X120488700Y-122790900D01*
X120878700Y-123180900D02*
X120878700Y-130650900D01*
X120878700Y-130650900D02*
X129498700Y-130650900D01*
X121938700Y-124140900D02*
X124938700Y-124140900D01*
X121938700Y-125490900D02*
X122688700Y-125490900D01*
X121938700Y-129790900D02*
X121938700Y-125490900D01*
X122188700Y-125140900D02*
X121938700Y-124140900D01*
X122688700Y-125140900D02*
X122188700Y-125140900D01*
X122688700Y-125490900D02*
X122688700Y-125140900D01*
X122688700Y-129790900D02*
X121938700Y-129790900D01*
X124188700Y-125140900D02*
X124188700Y-125490900D01*
X124188700Y-125490900D02*
X124938700Y-125490900D01*
X124688700Y-125140900D02*
X124188700Y-125140900D01*
X124938700Y-124140900D02*
X124688700Y-125140900D01*
X124938700Y-125490900D02*
X124938700Y-129790900D01*
X124938700Y-129790900D02*
X124188700Y-129790900D01*
X125438700Y-124140900D02*
X128438700Y-124140900D01*
X125438700Y-125490900D02*
X126188700Y-125490900D01*
X125438700Y-129790900D02*
X125438700Y-125490900D01*
X125688700Y-125140900D02*
X125438700Y-124140900D01*
X126188700Y-125140900D02*
X125688700Y-125140900D01*
X126188700Y-125490900D02*
X126188700Y-125140900D01*
X126188700Y-129790900D02*
X125438700Y-129790900D01*
X127688700Y-125140900D02*
X127688700Y-125490900D01*
X127688700Y-125490900D02*
X128438700Y-125490900D01*
X128188700Y-125140900D02*
X127688700Y-125140900D01*
X128438700Y-124140900D02*
X128188700Y-125140900D01*
X128438700Y-125490900D02*
X128438700Y-129790900D01*
X128438700Y-129790900D02*
X127688700Y-129790900D01*
X129498700Y-123180900D02*
X120878700Y-123180900D01*
X129498700Y-130650900D02*
X129498700Y-123180900D01*
X122688700Y-129790900D02*
G75*
G02*
X124188347Y-129790744I750000J-1700000D01*
G01*
X126188700Y-129790900D02*
G75*
G02*
X127688347Y-129790744I750000J-1700000D01*
G01*
D12*
%TO.C,kibuzzard-6696E01E*%
G36*
X164721568Y-130953557D02*
G01*
X164765995Y-130975366D01*
X164794589Y-131014623D01*
X164804121Y-131074235D01*
X164794428Y-131137079D01*
X164765349Y-131178274D01*
X164717206Y-131201053D01*
X164650324Y-131208646D01*
X164585704Y-131208646D01*
X164585704Y-130950164D01*
X164625122Y-130946933D01*
X164664541Y-130946287D01*
X164721568Y-130953557D01*
G37*
G36*
X163453555Y-130959211D02*
G01*
X163491681Y-131018662D01*
X163509775Y-131107192D01*
X163513168Y-131160019D01*
X163514299Y-131216400D01*
X163513168Y-131272620D01*
X163509775Y-131324962D01*
X163491681Y-131413492D01*
X163452909Y-131473589D01*
X163387643Y-131495560D01*
X163321730Y-131473589D01*
X163283604Y-131414138D01*
X163265510Y-131325608D01*
X163262118Y-131272781D01*
X163260987Y-131216400D01*
X163262118Y-131160180D01*
X163265510Y-131107838D01*
X163283604Y-131019308D01*
X163321730Y-130959211D01*
X163387643Y-130937240D01*
X163453555Y-130959211D01*
G37*
G36*
X165338667Y-130701342D02*
G01*
X165437181Y-130731226D01*
X165527972Y-130779755D01*
X165607551Y-130845064D01*
X165672860Y-130924643D01*
X165721389Y-131015435D01*
X165751273Y-131113949D01*
X165761364Y-131216400D01*
X165751273Y-131318851D01*
X165721389Y-131417365D01*
X165672860Y-131508157D01*
X165607551Y-131587736D01*
X165527972Y-131653045D01*
X165437181Y-131701574D01*
X165338667Y-131731458D01*
X165236216Y-131741548D01*
X164966964Y-131741548D01*
X164585704Y-131741548D01*
X164210906Y-131741548D01*
X163388935Y-131741548D01*
X163099436Y-131741548D01*
X162830184Y-131741548D01*
X162727733Y-131731458D01*
X162629219Y-131701574D01*
X162538428Y-131653045D01*
X162458849Y-131587736D01*
X162393540Y-131508157D01*
X162345011Y-131417365D01*
X162315127Y-131318851D01*
X162305036Y-131216400D01*
X163099436Y-131216400D01*
X163104080Y-131313452D01*
X163118014Y-131397822D01*
X163141237Y-131469510D01*
X163173749Y-131528516D01*
X163230687Y-131587034D01*
X163302416Y-131622144D01*
X163388935Y-131633847D01*
X163473372Y-131622144D01*
X163544024Y-131587034D01*
X163600890Y-131528516D01*
X163633685Y-131469510D01*
X163657110Y-131397822D01*
X163662788Y-131363734D01*
X163856786Y-131363734D01*
X164210906Y-131363734D01*
X164210906Y-131207353D01*
X163856786Y-131207353D01*
X163856786Y-131363734D01*
X163662788Y-131363734D01*
X163671164Y-131313452D01*
X163675849Y-131216400D01*
X163671245Y-131119348D01*
X163657433Y-131034978D01*
X163634412Y-130963290D01*
X163602182Y-130904284D01*
X163545604Y-130845766D01*
X163508165Y-130827385D01*
X164426738Y-130827385D01*
X164426738Y-131617046D01*
X164585704Y-131617046D01*
X164585704Y-131346933D01*
X164642570Y-131346933D01*
X164738136Y-131339825D01*
X164818050Y-131318500D01*
X164882311Y-131282959D01*
X164929341Y-131231478D01*
X164957558Y-131162334D01*
X164966964Y-131075528D01*
X164957630Y-130989583D01*
X164929628Y-130921300D01*
X164882958Y-130870681D01*
X164819343Y-130835858D01*
X164740506Y-130814964D01*
X164646447Y-130807999D01*
X164596043Y-130809292D01*
X164537885Y-130812523D01*
X164479080Y-130818339D01*
X164426738Y-130827385D01*
X163508165Y-130827385D01*
X163474090Y-130810656D01*
X163387643Y-130798953D01*
X163303780Y-130810656D01*
X163233128Y-130845766D01*
X163175688Y-130904284D01*
X163142328Y-130963290D01*
X163118499Y-131034978D01*
X163104202Y-131119348D01*
X163099436Y-131216400D01*
X162305036Y-131216400D01*
X162315127Y-131113949D01*
X162345011Y-131015435D01*
X162393540Y-130924643D01*
X162458849Y-130845064D01*
X162538428Y-130779755D01*
X162629219Y-130731226D01*
X162727733Y-130701342D01*
X162830184Y-130691252D01*
X163099436Y-130691252D01*
X164966964Y-130691252D01*
X165236216Y-130691252D01*
X165338667Y-130701342D01*
G37*
%TO.C,kibuzzard-6696E054*%
G36*
X175974184Y-130718455D02*
G01*
X176069425Y-130747346D01*
X176157200Y-130794262D01*
X176234135Y-130857401D01*
X176297274Y-130934337D01*
X176344191Y-131022111D01*
X176373082Y-131117353D01*
X176382837Y-131216400D01*
X176373082Y-131315447D01*
X176344191Y-131410689D01*
X176297274Y-131498463D01*
X176234135Y-131575399D01*
X176157200Y-131638538D01*
X176069425Y-131685454D01*
X175974184Y-131714345D01*
X175875136Y-131724101D01*
X175605885Y-131724101D01*
X175477937Y-131724101D01*
X174873090Y-131724101D01*
X173796515Y-131724101D01*
X173527264Y-131724101D01*
X173428216Y-131714345D01*
X173332975Y-131685454D01*
X173245200Y-131638538D01*
X173168265Y-131575399D01*
X173105126Y-131498463D01*
X173058209Y-131410689D01*
X173029318Y-131315447D01*
X173019563Y-131216400D01*
X173029318Y-131117353D01*
X173058209Y-131022111D01*
X173097702Y-130948226D01*
X173796515Y-130948226D01*
X173970990Y-130948226D01*
X173970990Y-131484574D01*
X173796515Y-131484574D01*
X173796515Y-131616400D01*
X174304431Y-131616400D01*
X175078583Y-131616400D01*
X175222040Y-131616400D01*
X175222040Y-131085221D01*
X175270075Y-131173894D01*
X175315955Y-131262424D01*
X175359681Y-131350810D01*
X175401254Y-131439197D01*
X175440672Y-131527727D01*
X175477937Y-131616400D01*
X175605885Y-131616400D01*
X175605885Y-130816400D01*
X175462428Y-130816400D01*
X175462428Y-131308807D01*
X175439649Y-131258403D01*
X175412670Y-131200245D01*
X175382299Y-131137240D01*
X175349342Y-131072297D01*
X175314609Y-131006222D01*
X175278906Y-130939825D01*
X175242719Y-130875689D01*
X175206531Y-130816400D01*
X175078583Y-130816400D01*
X175078583Y-131616400D01*
X174304431Y-131616400D01*
X174304431Y-131484574D01*
X174131248Y-131484574D01*
X174131248Y-131363088D01*
X174518971Y-131363088D01*
X174873090Y-131363088D01*
X174873090Y-131206707D01*
X174518971Y-131206707D01*
X174518971Y-131363088D01*
X174131248Y-131363088D01*
X174131248Y-130948226D01*
X174304431Y-130948226D01*
X174304431Y-130816400D01*
X173796515Y-130816400D01*
X173796515Y-130948226D01*
X173097702Y-130948226D01*
X173105126Y-130934337D01*
X173168265Y-130857401D01*
X173245200Y-130794262D01*
X173332975Y-130747346D01*
X173428216Y-130718455D01*
X173527264Y-130708699D01*
X173796515Y-130708699D01*
X175605885Y-130708699D01*
X175875136Y-130708699D01*
X175974184Y-130718455D01*
G37*
%TO.C,kibuzzard-6696DFAD*%
G36*
X180854046Y-131057434D02*
G01*
X180874724Y-131137563D01*
X180892172Y-131217046D01*
X180907681Y-131299760D01*
X180751300Y-131299760D01*
X180767455Y-131217046D01*
X180785548Y-131137563D01*
X180806227Y-131057434D01*
X180830136Y-130971489D01*
X180854046Y-131057434D01*
G37*
G36*
X182763540Y-130718455D02*
G01*
X182858781Y-130747346D01*
X182946556Y-130794262D01*
X183023491Y-130857401D01*
X183086630Y-130934337D01*
X183133547Y-131022111D01*
X183162438Y-131117353D01*
X183172193Y-131216400D01*
X183162438Y-131315447D01*
X183133547Y-131410689D01*
X183086630Y-131498463D01*
X183023491Y-131575399D01*
X182946556Y-131638538D01*
X182858781Y-131685454D01*
X182763540Y-131714345D01*
X182664493Y-131724101D01*
X182395241Y-131724101D01*
X181654692Y-131724101D01*
X180972301Y-131724101D01*
X180519959Y-131724101D01*
X180250707Y-131724101D01*
X180151660Y-131714345D01*
X180056419Y-131685454D01*
X179968644Y-131638538D01*
X179941669Y-131616400D01*
X180519959Y-131616400D01*
X180685387Y-131616400D01*
X180721574Y-131431586D01*
X180934821Y-131431586D01*
X180972301Y-131616400D01*
X181142899Y-131616400D01*
X181892495Y-131616400D01*
X182395241Y-131616400D01*
X182395241Y-131484574D01*
X182052753Y-131484574D01*
X182052753Y-130816400D01*
X181892495Y-130816400D01*
X181892495Y-131616400D01*
X181142899Y-131616400D01*
X181121574Y-131525699D01*
X181099991Y-131437634D01*
X181080931Y-131363088D01*
X181300573Y-131363088D01*
X181654692Y-131363088D01*
X181654692Y-131206707D01*
X181300573Y-131206707D01*
X181300573Y-131363088D01*
X181080931Y-131363088D01*
X181078149Y-131352206D01*
X181056049Y-131269415D01*
X181033690Y-131189259D01*
X181005540Y-131092046D01*
X180977309Y-130997499D01*
X180948997Y-130905616D01*
X180920605Y-130816400D01*
X180747422Y-130816400D01*
X180720039Y-130904889D01*
X180692172Y-130995883D01*
X180663820Y-131089381D01*
X180634983Y-131185382D01*
X180611771Y-131264865D01*
X180588663Y-131347709D01*
X180565658Y-131433912D01*
X180542757Y-131523476D01*
X180519959Y-131616400D01*
X179941669Y-131616400D01*
X179891709Y-131575399D01*
X179828570Y-131498463D01*
X179781653Y-131410689D01*
X179752762Y-131315447D01*
X179743007Y-131216400D01*
X179752762Y-131117353D01*
X179781653Y-131022111D01*
X179828570Y-130934337D01*
X179891709Y-130857401D01*
X179968644Y-130794262D01*
X180056419Y-130747346D01*
X180151660Y-130718455D01*
X180250707Y-130708699D01*
X180519959Y-130708699D01*
X182395241Y-130708699D01*
X182664493Y-130708699D01*
X182763540Y-130718455D01*
G37*
D11*
%TO.C,J5*%
X109160300Y-122790900D02*
X111160300Y-122790900D01*
X109160300Y-124040900D02*
X109160300Y-122790900D01*
X109550300Y-123180900D02*
X109550300Y-130650900D01*
X109550300Y-130650900D02*
X118170300Y-130650900D01*
X110610300Y-124140900D02*
X113610300Y-124140900D01*
X110610300Y-125490900D02*
X111360300Y-125490900D01*
X110610300Y-129790900D02*
X110610300Y-125490900D01*
X110860300Y-125140900D02*
X110610300Y-124140900D01*
X111360300Y-125140900D02*
X110860300Y-125140900D01*
X111360300Y-125490900D02*
X111360300Y-125140900D01*
X111360300Y-129790900D02*
X110610300Y-129790900D01*
X112860300Y-125140900D02*
X112860300Y-125490900D01*
X112860300Y-125490900D02*
X113610300Y-125490900D01*
X113360300Y-125140900D02*
X112860300Y-125140900D01*
X113610300Y-124140900D02*
X113360300Y-125140900D01*
X113610300Y-125490900D02*
X113610300Y-129790900D01*
X113610300Y-129790900D02*
X112860300Y-129790900D01*
X114110300Y-124140900D02*
X117110300Y-124140900D01*
X114110300Y-125490900D02*
X114860300Y-125490900D01*
X114110300Y-129790900D02*
X114110300Y-125490900D01*
X114360300Y-125140900D02*
X114110300Y-124140900D01*
X114860300Y-125140900D02*
X114360300Y-125140900D01*
X114860300Y-125490900D02*
X114860300Y-125140900D01*
X114860300Y-129790900D02*
X114110300Y-129790900D01*
X116360300Y-125140900D02*
X116360300Y-125490900D01*
X116360300Y-125490900D02*
X117110300Y-125490900D01*
X116860300Y-125140900D02*
X116360300Y-125140900D01*
X117110300Y-124140900D02*
X116860300Y-125140900D01*
X117110300Y-125490900D02*
X117110300Y-129790900D01*
X117110300Y-129790900D02*
X116360300Y-129790900D01*
X118170300Y-123180900D02*
X109550300Y-123180900D01*
X118170300Y-130650900D02*
X118170300Y-123180900D01*
X111360300Y-129790900D02*
G75*
G02*
X112859947Y-129790744I750000J-1700000D01*
G01*
X114860300Y-129790900D02*
G75*
G02*
X116359947Y-129790744I750000J-1700000D01*
G01*
%TO.C,R1*%
X147499400Y-125703064D02*
X147499400Y-125248936D01*
X148969400Y-125703064D02*
X148969400Y-125248936D01*
D12*
%TO.C,kibuzzard-66AD0A64*%
G36*
X143669309Y-127169422D02*
G01*
X142996180Y-127169422D01*
X140708620Y-127169422D01*
X139765163Y-127169422D01*
X137267586Y-127169422D01*
X136708620Y-127169422D01*
X136035491Y-127169422D01*
X136035491Y-124864629D01*
X136708620Y-124864629D01*
X136745776Y-125045566D01*
X136799088Y-125271738D01*
X136841809Y-125441007D01*
X136888121Y-125617098D01*
X136938022Y-125800009D01*
X136990795Y-125986511D01*
X137045723Y-126173371D01*
X137102804Y-126360591D01*
X137187618Y-126627150D01*
X137267586Y-126864629D01*
X137677925Y-126864629D01*
X137739673Y-126692488D01*
X137799986Y-126516397D01*
X137858862Y-126336358D01*
X137915405Y-126155421D01*
X137968717Y-125976638D01*
X138018797Y-125800009D01*
X138087457Y-125542739D01*
X138148038Y-125297586D01*
X138151733Y-125281431D01*
X138437214Y-125281431D01*
X138566455Y-125610995D01*
X138763547Y-125531835D01*
X138970332Y-125417133D01*
X138970332Y-126535066D01*
X138550300Y-126535066D01*
X138550300Y-126864629D01*
X139765163Y-126864629D01*
X139765163Y-126609379D01*
X140417828Y-126609379D01*
X140442061Y-126733773D01*
X140506681Y-126824242D01*
X140598765Y-126880784D01*
X140708620Y-126900171D01*
X140908943Y-126825857D01*
X140996180Y-126609379D01*
X140908943Y-126399363D01*
X140708620Y-126325049D01*
X140598765Y-126344436D01*
X140506681Y-126399363D01*
X140442061Y-126488216D01*
X140417828Y-126609379D01*
X139765163Y-126609379D01*
X139765163Y-126535066D01*
X139367747Y-126535066D01*
X139367747Y-125281431D01*
X141668232Y-125281431D01*
X141797473Y-125610995D01*
X141994565Y-125531835D01*
X142201350Y-125417133D01*
X142201350Y-126535066D01*
X141781318Y-126535066D01*
X141781318Y-126864629D01*
X142996180Y-126864629D01*
X142996180Y-126535066D01*
X142598765Y-126535066D01*
X142598765Y-124864629D01*
X142327360Y-124864629D01*
X142188426Y-124990639D01*
X142017182Y-125106956D01*
X141836245Y-125207117D01*
X141668232Y-125281431D01*
X139367747Y-125281431D01*
X139367747Y-124864629D01*
X139096342Y-124864629D01*
X138957408Y-124990639D01*
X138786164Y-125106956D01*
X138605227Y-125207117D01*
X138437214Y-125281431D01*
X138151733Y-125281431D01*
X138200138Y-125069799D01*
X138243353Y-124864629D01*
X137826552Y-124864629D01*
X137797473Y-125032642D01*
X137761932Y-125226503D01*
X137721544Y-125436116D01*
X137677925Y-125651382D01*
X137631075Y-125867860D01*
X137580995Y-126081108D01*
X137529298Y-126281027D01*
X137477602Y-126457521D01*
X137425502Y-126278604D01*
X137372594Y-126077877D01*
X137320898Y-125864629D01*
X137272432Y-125648151D01*
X137227602Y-125433289D01*
X137186810Y-125224888D01*
X137152885Y-125032238D01*
X137128652Y-124864629D01*
X136708620Y-124864629D01*
X136035491Y-124864629D01*
X136035491Y-124595378D01*
X136708620Y-124595378D01*
X142996180Y-124595378D01*
X143669309Y-124595378D01*
X143669309Y-127169422D01*
G37*
%TO.C,kibuzzard-6696DF0D*%
G36*
X124429770Y-130710216D02*
G01*
X124526587Y-130739585D01*
X124615814Y-130787278D01*
X124694022Y-130851461D01*
X124758206Y-130929670D01*
X124805899Y-131018897D01*
X124835268Y-131115714D01*
X124845185Y-131216400D01*
X124835268Y-131317086D01*
X124805899Y-131413903D01*
X124758206Y-131503130D01*
X124694022Y-131581339D01*
X124615814Y-131645522D01*
X124526587Y-131693215D01*
X124429770Y-131722584D01*
X124329083Y-131732501D01*
X124059832Y-131732501D01*
X123669525Y-131732501D01*
X123044000Y-131732501D01*
X122828168Y-131732501D01*
X122558917Y-131732501D01*
X122458230Y-131722584D01*
X122361413Y-131693215D01*
X122272186Y-131645522D01*
X122196543Y-131583444D01*
X122828168Y-131583444D01*
X122865002Y-131597660D01*
X122918637Y-131611230D01*
X122980672Y-131620923D01*
X123044000Y-131624801D01*
X123117990Y-131619954D01*
X123182288Y-131605415D01*
X123236892Y-131582151D01*
X123281803Y-131551133D01*
X123341254Y-131469066D01*
X123360640Y-131366319D01*
X123351880Y-131291360D01*
X123325601Y-131228462D01*
X123281803Y-131177628D01*
X123220198Y-131139143D01*
X123140500Y-131113295D01*
X123042708Y-131100083D01*
X123049170Y-131026416D01*
X123055632Y-130939825D01*
X123330914Y-130939825D01*
X123330914Y-130807999D01*
X123445939Y-130807999D01*
X123460801Y-130880374D01*
X123482126Y-130970843D01*
X123499215Y-131038550D01*
X123517739Y-131108987D01*
X123537700Y-131182151D01*
X123558809Y-131256752D01*
X123580780Y-131331496D01*
X123603612Y-131406384D01*
X123637538Y-131513007D01*
X123669525Y-131607999D01*
X123833661Y-131607999D01*
X123858360Y-131539143D01*
X123882485Y-131468707D01*
X123906036Y-131396691D01*
X123928653Y-131324316D01*
X123949977Y-131252803D01*
X123970010Y-131182151D01*
X123997473Y-131079243D01*
X124021706Y-130981182D01*
X124042546Y-130890067D01*
X124059832Y-130807999D01*
X123893111Y-130807999D01*
X123881480Y-130875205D01*
X123867263Y-130952749D01*
X123851108Y-131036594D01*
X123833661Y-131122700D01*
X123814921Y-131209292D01*
X123794889Y-131294591D01*
X123774210Y-131374558D01*
X123753532Y-131445156D01*
X123732691Y-131373589D01*
X123711528Y-131293298D01*
X123690850Y-131207999D01*
X123671464Y-131121408D01*
X123653532Y-131035463D01*
X123637215Y-130952103D01*
X123623645Y-130875043D01*
X123613952Y-130807999D01*
X123445939Y-130807999D01*
X123330914Y-130807999D01*
X122922514Y-130807999D01*
X122917667Y-130906707D01*
X122910882Y-131008969D01*
X122901835Y-131114138D01*
X122890204Y-131221570D01*
X122979057Y-131224316D01*
X123049170Y-131232555D01*
X123142869Y-131263573D01*
X123186811Y-131311392D01*
X123197796Y-131372781D01*
X123191334Y-131415431D01*
X123167425Y-131452264D01*
X123119606Y-131478759D01*
X123042708Y-131489098D01*
X122982288Y-131486190D01*
X122932853Y-131477466D01*
X122860478Y-131451618D01*
X122828168Y-131583444D01*
X122196543Y-131583444D01*
X122193978Y-131581339D01*
X122129794Y-131503130D01*
X122082101Y-131413903D01*
X122052732Y-131317086D01*
X122042815Y-131216400D01*
X122052732Y-131115714D01*
X122082101Y-131018897D01*
X122129794Y-130929670D01*
X122193978Y-130851461D01*
X122272186Y-130787278D01*
X122361413Y-130739585D01*
X122458230Y-130710216D01*
X122558917Y-130700299D01*
X122828168Y-130700299D01*
X124059832Y-130700299D01*
X124329083Y-130700299D01*
X124429770Y-130710216D01*
G37*
D11*
%TO.C,J1*%
X178502300Y-122790900D02*
X180502300Y-122790900D01*
X178502300Y-124040900D02*
X178502300Y-122790900D01*
X178892300Y-123180900D02*
X178892300Y-130650900D01*
X178892300Y-130650900D02*
X194512300Y-130650900D01*
X179952300Y-124140900D02*
X182952300Y-124140900D01*
X179952300Y-125490900D02*
X180702300Y-125490900D01*
X179952300Y-129790900D02*
X179952300Y-125490900D01*
X180202300Y-125140900D02*
X179952300Y-124140900D01*
X180702300Y-125140900D02*
X180202300Y-125140900D01*
X180702300Y-125490900D02*
X180702300Y-125140900D01*
X180702300Y-129790900D02*
X179952300Y-129790900D01*
X182202300Y-125140900D02*
X182202300Y-125490900D01*
X182202300Y-125490900D02*
X182952300Y-125490900D01*
X182702300Y-125140900D02*
X182202300Y-125140900D01*
X182952300Y-124140900D02*
X182702300Y-125140900D01*
X182952300Y-125490900D02*
X182952300Y-129790900D01*
X182952300Y-129790900D02*
X182202300Y-129790900D01*
X183452300Y-124140900D02*
X186452300Y-124140900D01*
X183452300Y-125490900D02*
X184202300Y-125490900D01*
X183452300Y-129790900D02*
X183452300Y-125490900D01*
X183702300Y-125140900D02*
X183452300Y-124140900D01*
X184202300Y-125140900D02*
X183702300Y-125140900D01*
X184202300Y-125490900D02*
X184202300Y-125140900D01*
X184202300Y-129790900D02*
X183452300Y-129790900D01*
X185702300Y-125140900D02*
X185702300Y-125490900D01*
X185702300Y-125490900D02*
X186452300Y-125490900D01*
X186202300Y-125140900D02*
X185702300Y-125140900D01*
X186452300Y-124140900D02*
X186202300Y-125140900D01*
X186452300Y-125490900D02*
X186452300Y-129790900D01*
X186452300Y-129790900D02*
X185702300Y-129790900D01*
X186952300Y-124140900D02*
X189952300Y-124140900D01*
X186952300Y-125490900D02*
X187702300Y-125490900D01*
X186952300Y-129790900D02*
X186952300Y-125490900D01*
X187202300Y-125140900D02*
X186952300Y-124140900D01*
X187702300Y-125140900D02*
X187202300Y-125140900D01*
X187702300Y-125490900D02*
X187702300Y-125140900D01*
X187702300Y-129790900D02*
X186952300Y-129790900D01*
X189202300Y-125140900D02*
X189202300Y-125490900D01*
X189202300Y-125490900D02*
X189952300Y-125490900D01*
X189702300Y-125140900D02*
X189202300Y-125140900D01*
X189952300Y-124140900D02*
X189702300Y-125140900D01*
X189952300Y-125490900D02*
X189952300Y-129790900D01*
X189952300Y-129790900D02*
X189202300Y-129790900D01*
X190452300Y-124140900D02*
X193452300Y-124140900D01*
X190452300Y-125490900D02*
X191202300Y-125490900D01*
X190452300Y-129790900D02*
X190452300Y-125490900D01*
X190702300Y-125140900D02*
X190452300Y-124140900D01*
X191202300Y-125140900D02*
X190702300Y-125140900D01*
X191202300Y-125490900D02*
X191202300Y-125140900D01*
X191202300Y-129790900D02*
X190452300Y-129790900D01*
X192702300Y-125140900D02*
X192702300Y-125490900D01*
X192702300Y-125490900D02*
X193452300Y-125490900D01*
X193202300Y-125140900D02*
X192702300Y-125140900D01*
X193452300Y-124140900D02*
X193202300Y-125140900D01*
X193452300Y-125490900D02*
X193452300Y-129790900D01*
X193452300Y-129790900D02*
X192702300Y-129790900D01*
X194512300Y-123180900D02*
X178892300Y-123180900D01*
X194512300Y-130650900D02*
X194512300Y-123180900D01*
X180702300Y-129790900D02*
G75*
G02*
X182201947Y-129790744I750000J-1700000D01*
G01*
X184202300Y-129790900D02*
G75*
G02*
X185701947Y-129790744I750000J-1700000D01*
G01*
X187702300Y-129790900D02*
G75*
G02*
X189201947Y-129790744I750000J-1700000D01*
G01*
X191202300Y-129790900D02*
G75*
G02*
X192701947Y-129790744I750000J-1700000D01*
G01*
%TO.C,R2*%
X147499400Y-121385064D02*
X147499400Y-120930936D01*
X148969400Y-121385064D02*
X148969400Y-120930936D01*
D12*
%TO.C,kibuzzard-6696DEDD*%
G36*
X116305776Y-130968904D02*
G01*
X116358764Y-131029001D01*
X116385905Y-131115592D01*
X116393659Y-131216400D01*
X116391236Y-131273427D01*
X116383966Y-131325608D01*
X116351656Y-131411553D01*
X116292206Y-131468419D01*
X116201091Y-131489098D01*
X116186874Y-131489098D01*
X116172658Y-131487805D01*
X116172658Y-130950164D01*
X116195921Y-130946933D01*
X116219185Y-130946287D01*
X116305776Y-130968904D01*
G37*
G36*
X116926913Y-130701342D02*
G01*
X117025427Y-130731226D01*
X117116218Y-130779755D01*
X117195798Y-130845064D01*
X117261106Y-130924643D01*
X117309635Y-131015435D01*
X117339519Y-131113949D01*
X117349610Y-131216400D01*
X117339519Y-131318851D01*
X117309635Y-131417365D01*
X117261106Y-131508157D01*
X117195798Y-131587736D01*
X117116218Y-131653045D01*
X117025427Y-131701574D01*
X116926913Y-131731458D01*
X116824462Y-131741548D01*
X116555210Y-131741548D01*
X116184290Y-131741548D01*
X115756503Y-131741548D01*
X115013369Y-131741548D01*
X114686390Y-131741548D01*
X114417138Y-131741548D01*
X114314687Y-131731458D01*
X114216173Y-131701574D01*
X114125382Y-131653045D01*
X114045802Y-131587736D01*
X113980494Y-131508157D01*
X113931965Y-131417365D01*
X113902081Y-131318851D01*
X113891990Y-131216400D01*
X114686390Y-131216400D01*
X114692206Y-131313492D01*
X114709653Y-131397983D01*
X114737763Y-131469712D01*
X114775566Y-131528516D01*
X114822577Y-131574397D01*
X114878312Y-131607353D01*
X114942125Y-131627224D01*
X115013369Y-131633847D01*
X115092367Y-131630616D01*
X115158764Y-131620923D01*
X115173518Y-131617046D01*
X115357149Y-131617046D01*
X115500606Y-131617046D01*
X115500606Y-131085867D01*
X115548641Y-131174540D01*
X115594521Y-131263070D01*
X115638248Y-131351457D01*
X115679820Y-131439843D01*
X115719238Y-131528373D01*
X115756503Y-131617046D01*
X115884451Y-131617046D01*
X115884451Y-130827385D01*
X116013692Y-130827385D01*
X116013692Y-131607999D01*
X116100929Y-131622862D01*
X116184290Y-131627385D01*
X116262319Y-131621731D01*
X116333563Y-131604768D01*
X116396729Y-131575528D01*
X116450525Y-131533040D01*
X116494306Y-131476658D01*
X116527424Y-131405738D01*
X116548264Y-131319308D01*
X116555210Y-131216400D01*
X116548910Y-131115754D01*
X116530008Y-131030940D01*
X116499798Y-130960826D01*
X116459572Y-130904284D01*
X116409330Y-130861150D01*
X116349071Y-130831263D01*
X116280412Y-130813815D01*
X116204968Y-130807999D01*
X116115792Y-130811877D01*
X116013692Y-130827385D01*
X115884451Y-130827385D01*
X115884451Y-130817046D01*
X115740994Y-130817046D01*
X115740994Y-131309453D01*
X115718215Y-131259049D01*
X115691236Y-131200891D01*
X115660865Y-131137886D01*
X115627908Y-131072943D01*
X115593175Y-131006868D01*
X115557472Y-130940471D01*
X115521285Y-130876335D01*
X115485097Y-130817046D01*
X115357149Y-130817046D01*
X115357149Y-131617046D01*
X115173518Y-131617046D01*
X115247294Y-131597660D01*
X115247294Y-131198306D01*
X115088328Y-131198306D01*
X115088328Y-131490390D01*
X115057311Y-131494268D01*
X115026293Y-131495560D01*
X114949071Y-131478597D01*
X114893175Y-131427709D01*
X114868045Y-131374074D01*
X114852967Y-131303637D01*
X114847941Y-131216400D01*
X114850687Y-131157111D01*
X114858926Y-131103314D01*
X114895113Y-131015431D01*
X114959088Y-130957919D01*
X115054726Y-130937240D01*
X115140025Y-130951457D01*
X115209815Y-130983767D01*
X115251172Y-130857111D01*
X115224677Y-130841602D01*
X115180089Y-130822216D01*
X115116115Y-130806061D01*
X115032755Y-130798953D01*
X114962642Y-130805576D01*
X114897052Y-130825447D01*
X114837924Y-130858565D01*
X114787197Y-130904930D01*
X114745517Y-130964219D01*
X114713530Y-131036109D01*
X114693175Y-131120277D01*
X114686390Y-131216400D01*
X113891990Y-131216400D01*
X113902081Y-131113949D01*
X113931965Y-131015435D01*
X113980494Y-130924643D01*
X114045802Y-130845064D01*
X114125382Y-130779755D01*
X114216173Y-130731226D01*
X114314687Y-130701342D01*
X114417138Y-130691252D01*
X114686390Y-130691252D01*
X116555210Y-130691252D01*
X116824462Y-130691252D01*
X116926913Y-130701342D01*
G37*
%TO.C,kibuzzard-66AD0A40*%
G36*
X191461803Y-131290713D02*
G01*
X191498637Y-131374074D01*
X191485712Y-131431586D01*
X191452756Y-131466481D01*
X191406876Y-131483282D01*
X191353887Y-131487805D01*
X191314468Y-131486513D01*
X191277635Y-131482636D01*
X191277635Y-131265511D01*
X191362934Y-131265511D01*
X191461803Y-131290713D01*
G37*
G36*
X191392659Y-130948226D02*
G01*
X191428847Y-130961150D01*
X191453402Y-130988290D01*
X191462449Y-131034171D01*
X191431431Y-131107192D01*
X191339670Y-131133686D01*
X191277635Y-131133686D01*
X191277635Y-130950164D01*
X191312530Y-130946287D01*
X191350010Y-130944995D01*
X191392659Y-130948226D01*
G37*
G36*
X193299521Y-130708948D02*
G01*
X193396581Y-130738391D01*
X193486031Y-130786203D01*
X193564435Y-130850547D01*
X193628780Y-130928951D01*
X193676592Y-131018402D01*
X193706035Y-131115462D01*
X193715976Y-131216400D01*
X193706035Y-131317338D01*
X193676592Y-131414398D01*
X193628780Y-131503849D01*
X193564435Y-131582253D01*
X193486031Y-131646597D01*
X193396581Y-131694409D01*
X193299521Y-131723852D01*
X193198583Y-131733794D01*
X192929331Y-131733794D01*
X192195244Y-131733794D01*
X191340963Y-131733794D01*
X191118669Y-131733794D01*
X190849417Y-131733794D01*
X190748479Y-131723852D01*
X190651419Y-131694409D01*
X190561969Y-131646597D01*
X190483565Y-131582253D01*
X190419220Y-131503849D01*
X190371408Y-131414398D01*
X190341965Y-131317338D01*
X190332024Y-131216400D01*
X190341965Y-131115462D01*
X190371408Y-131018402D01*
X190419220Y-130928951D01*
X190483565Y-130850547D01*
X190513363Y-130826093D01*
X191118669Y-130826093D01*
X191118669Y-131602830D01*
X191174565Y-131613007D01*
X191231108Y-131620277D01*
X191287005Y-131624639D01*
X191340963Y-131626093D01*
X191404775Y-131623024D01*
X191451836Y-131615754D01*
X192399444Y-131615754D01*
X192558410Y-131615754D01*
X192558410Y-131262927D01*
X192770365Y-131262927D01*
X192770365Y-131615754D01*
X192929331Y-131615754D01*
X192929331Y-130815754D01*
X192770365Y-130815754D01*
X192770365Y-131131101D01*
X192558410Y-131131101D01*
X192558410Y-130815754D01*
X192399444Y-130815754D01*
X192399444Y-131615754D01*
X191451836Y-131615754D01*
X191464388Y-131613815D01*
X191518023Y-131597337D01*
X191563903Y-131572458D01*
X191630462Y-131494914D01*
X191648879Y-131440471D01*
X191655018Y-131374074D01*
X191653460Y-131362442D01*
X191841124Y-131362442D01*
X192195244Y-131362442D01*
X192195244Y-131206061D01*
X191841124Y-131206061D01*
X191841124Y-131362442D01*
X191653460Y-131362442D01*
X191647748Y-131319793D01*
X191625939Y-131268096D01*
X191583774Y-131222862D01*
X191515438Y-131187967D01*
X191589751Y-131118177D01*
X191610591Y-131071004D01*
X191617538Y-131017369D01*
X191605906Y-130942410D01*
X191561964Y-130874558D01*
X191472788Y-130825447D01*
X191407522Y-130811392D01*
X191325454Y-130806707D01*
X191218184Y-130812523D01*
X191118669Y-130826093D01*
X190513363Y-130826093D01*
X190561969Y-130786203D01*
X190651419Y-130738391D01*
X190748479Y-130708948D01*
X190849417Y-130699006D01*
X191118669Y-130699006D01*
X192929331Y-130699006D01*
X193198583Y-130699006D01*
X193299521Y-130708948D01*
G37*
%TO.C,kibuzzard-6696DF63*%
G36*
X156682574Y-130906795D02*
G01*
X156727485Y-130929089D01*
X156756564Y-130967216D01*
X156766257Y-131022143D01*
X156730070Y-131111965D01*
X156682574Y-131135713D01*
X156612461Y-131143629D01*
X156577566Y-131143629D01*
X156577566Y-130903241D01*
X156603414Y-130900010D01*
X156625385Y-130899364D01*
X156682574Y-130906795D01*
G37*
G36*
X157996182Y-130663218D02*
G01*
X158092271Y-130692367D01*
X158180828Y-130739701D01*
X158258449Y-130803403D01*
X158322151Y-130881024D01*
X158369485Y-130969580D01*
X158398634Y-131065670D01*
X158408476Y-131165600D01*
X158398634Y-131265530D01*
X158369485Y-131361620D01*
X158322151Y-131450176D01*
X158258449Y-131527797D01*
X158180828Y-131591499D01*
X158092271Y-131638833D01*
X157996182Y-131667982D01*
X157896252Y-131677824D01*
X157627000Y-131677824D01*
X157455110Y-131677824D01*
X156980797Y-131677824D01*
X156418600Y-131677824D01*
X156149348Y-131677824D01*
X156049418Y-131667982D01*
X155953329Y-131638833D01*
X155864772Y-131591499D01*
X155787151Y-131527797D01*
X155723449Y-131450176D01*
X155676115Y-131361620D01*
X155646966Y-131265530D01*
X155637124Y-131165600D01*
X155646966Y-131065670D01*
X155676115Y-130969580D01*
X155723449Y-130881024D01*
X155787151Y-130803403D01*
X155813529Y-130781755D01*
X156418600Y-130781755D01*
X156418600Y-131570123D01*
X156577566Y-131570123D01*
X156577566Y-131275455D01*
X156660280Y-131275455D01*
X156704060Y-131348637D01*
X156744932Y-131420850D01*
X156781928Y-131494033D01*
X156814076Y-131570123D01*
X156980797Y-131570123D01*
X157009230Y-131570123D01*
X157181120Y-131570123D01*
X157210845Y-131500172D01*
X157245740Y-131422143D01*
X157283220Y-131341529D01*
X157320700Y-131263823D01*
X157358664Y-131343952D01*
X157395013Y-131424081D01*
X157427808Y-131500657D01*
X157455110Y-131570123D01*
X157627000Y-131570123D01*
X157592105Y-131485471D01*
X157568357Y-131433774D01*
X157541055Y-131378201D01*
X157510845Y-131319881D01*
X157478374Y-131259946D01*
X157444448Y-131200495D01*
X157409876Y-131143629D01*
X157614076Y-130770123D01*
X157453818Y-130770123D01*
X157320700Y-131026020D01*
X157194044Y-130770123D01*
X157022154Y-130770123D01*
X157231524Y-131147506D01*
X157199860Y-131204211D01*
X157166903Y-131263177D01*
X157134109Y-131322466D01*
X157102929Y-131380140D01*
X157073850Y-131435067D01*
X157047356Y-131486117D01*
X157009230Y-131570123D01*
X156980797Y-131570123D01*
X156943963Y-131485471D01*
X156899375Y-131396295D01*
X156851556Y-131310996D01*
X156805029Y-131236682D01*
X156861572Y-131200172D01*
X156899375Y-131150091D01*
X156920700Y-131089994D01*
X156927808Y-131023435D01*
X156922477Y-130960592D01*
X156906483Y-130906472D01*
X156845094Y-130824405D01*
X156801152Y-130796295D01*
X156749456Y-130776585D01*
X156690651Y-130764954D01*
X156625385Y-130761077D01*
X156580151Y-130762369D01*
X156525869Y-130765600D01*
X156469650Y-130772062D01*
X156418600Y-130781755D01*
X155813529Y-130781755D01*
X155864772Y-130739701D01*
X155953329Y-130692367D01*
X156049418Y-130663218D01*
X156149348Y-130653376D01*
X156418600Y-130653376D01*
X157627000Y-130653376D01*
X157896252Y-130653376D01*
X157996182Y-130663218D01*
G37*
%TO.C,kibuzzard-6696DF6D*%
G36*
X154508839Y-130667655D02*
G01*
X154604080Y-130696546D01*
X154691855Y-130743462D01*
X154768790Y-130806601D01*
X154831929Y-130883537D01*
X154878846Y-130971311D01*
X154907737Y-131066553D01*
X154917492Y-131165600D01*
X154907737Y-131264647D01*
X154878846Y-131359889D01*
X154831929Y-131447663D01*
X154768790Y-131524599D01*
X154691855Y-131587738D01*
X154604080Y-131634654D01*
X154508839Y-131663545D01*
X154409792Y-131673301D01*
X154140540Y-131673301D01*
X153968650Y-131673301D01*
X153265581Y-131673301D01*
X152894660Y-131673301D01*
X152625408Y-131673301D01*
X152526361Y-131663545D01*
X152431120Y-131634654D01*
X152343345Y-131587738D01*
X152266410Y-131524599D01*
X152203271Y-131447663D01*
X152156354Y-131359889D01*
X152127463Y-131264647D01*
X152117708Y-131165600D01*
X152127463Y-131066553D01*
X152156354Y-130971311D01*
X152195847Y-130897426D01*
X152894660Y-130897426D01*
X153105322Y-130897426D01*
X153105322Y-131565600D01*
X153265581Y-131565600D01*
X153522770Y-131565600D01*
X153694660Y-131565600D01*
X153724385Y-131495648D01*
X153759280Y-131417619D01*
X153796760Y-131337005D01*
X153834240Y-131259300D01*
X153872204Y-131339429D01*
X153908553Y-131419558D01*
X153941348Y-131496133D01*
X153968650Y-131565600D01*
X154140540Y-131565600D01*
X154105645Y-131480947D01*
X154081897Y-131429251D01*
X154054595Y-131373678D01*
X154024385Y-131315358D01*
X153991913Y-131255422D01*
X153957988Y-131195972D01*
X153923416Y-131139106D01*
X154127616Y-130765600D01*
X153967358Y-130765600D01*
X153834240Y-131021497D01*
X153707584Y-130765600D01*
X153535694Y-130765600D01*
X153745064Y-131142983D01*
X153713400Y-131199687D01*
X153680443Y-131258653D01*
X153647648Y-131317942D01*
X153616469Y-131375616D01*
X153587390Y-131430543D01*
X153560896Y-131481594D01*
X153522770Y-131565600D01*
X153265581Y-131565600D01*
X153265581Y-130897426D01*
X153476243Y-130897426D01*
X153476243Y-130765600D01*
X152894660Y-130765600D01*
X152894660Y-130897426D01*
X152195847Y-130897426D01*
X152203271Y-130883537D01*
X152266410Y-130806601D01*
X152343345Y-130743462D01*
X152431120Y-130696546D01*
X152526361Y-130667655D01*
X152625408Y-130657899D01*
X152894660Y-130657899D01*
X154140540Y-130657899D01*
X154409792Y-130657899D01*
X154508839Y-130667655D01*
G37*
D11*
%TO.C,J2*%
X161083200Y-122808800D02*
X163083200Y-122808800D01*
X161083200Y-124058800D02*
X161083200Y-122808800D01*
X161473200Y-123198800D02*
X161473200Y-130668800D01*
X161473200Y-130668800D02*
X177093200Y-130668800D01*
X162533200Y-124158800D02*
X165533200Y-124158800D01*
X162533200Y-125508800D02*
X163283200Y-125508800D01*
X162533200Y-129808800D02*
X162533200Y-125508800D01*
X162783200Y-125158800D02*
X162533200Y-124158800D01*
X163283200Y-125158800D02*
X162783200Y-125158800D01*
X163283200Y-125508800D02*
X163283200Y-125158800D01*
X163283200Y-129808800D02*
X162533200Y-129808800D01*
X164783200Y-125158800D02*
X164783200Y-125508800D01*
X164783200Y-125508800D02*
X165533200Y-125508800D01*
X165283200Y-125158800D02*
X164783200Y-125158800D01*
X165533200Y-124158800D02*
X165283200Y-125158800D01*
X165533200Y-125508800D02*
X165533200Y-129808800D01*
X165533200Y-129808800D02*
X164783200Y-129808800D01*
X166033200Y-124158800D02*
X169033200Y-124158800D01*
X166033200Y-125508800D02*
X166783200Y-125508800D01*
X166033200Y-129808800D02*
X166033200Y-125508800D01*
X166283200Y-125158800D02*
X166033200Y-124158800D01*
X166783200Y-125158800D02*
X166283200Y-125158800D01*
X166783200Y-125508800D02*
X166783200Y-125158800D01*
X166783200Y-129808800D02*
X166033200Y-129808800D01*
X168283200Y-125158800D02*
X168283200Y-125508800D01*
X168283200Y-125508800D02*
X169033200Y-125508800D01*
X168783200Y-125158800D02*
X168283200Y-125158800D01*
X169033200Y-124158800D02*
X168783200Y-125158800D01*
X169033200Y-125508800D02*
X169033200Y-129808800D01*
X169033200Y-129808800D02*
X168283200Y-129808800D01*
X169533200Y-124158800D02*
X172533200Y-124158800D01*
X169533200Y-125508800D02*
X170283200Y-125508800D01*
X169533200Y-129808800D02*
X169533200Y-125508800D01*
X169783200Y-125158800D02*
X169533200Y-124158800D01*
X170283200Y-125158800D02*
X169783200Y-125158800D01*
X170283200Y-125508800D02*
X170283200Y-125158800D01*
X170283200Y-129808800D02*
X169533200Y-129808800D01*
X171783200Y-125158800D02*
X171783200Y-125508800D01*
X171783200Y-125508800D02*
X172533200Y-125508800D01*
X172283200Y-125158800D02*
X171783200Y-125158800D01*
X172533200Y-124158800D02*
X172283200Y-125158800D01*
X172533200Y-125508800D02*
X172533200Y-129808800D01*
X172533200Y-129808800D02*
X171783200Y-129808800D01*
X173033200Y-124158800D02*
X176033200Y-124158800D01*
X173033200Y-125508800D02*
X173783200Y-125508800D01*
X173033200Y-129808800D02*
X173033200Y-125508800D01*
X173283200Y-125158800D02*
X173033200Y-124158800D01*
X173783200Y-125158800D02*
X173283200Y-125158800D01*
X173783200Y-125508800D02*
X173783200Y-125158800D01*
X173783200Y-129808800D02*
X173033200Y-129808800D01*
X175283200Y-125158800D02*
X175283200Y-125508800D01*
X175283200Y-125508800D02*
X176033200Y-125508800D01*
X175783200Y-125158800D02*
X175283200Y-125158800D01*
X176033200Y-124158800D02*
X175783200Y-125158800D01*
X176033200Y-125508800D02*
X176033200Y-129808800D01*
X176033200Y-129808800D02*
X175283200Y-129808800D01*
X177093200Y-123198800D02*
X161473200Y-123198800D01*
X177093200Y-130668800D02*
X177093200Y-123198800D01*
X163283200Y-129808800D02*
G75*
G02*
X164782847Y-129808644I750000J-1700000D01*
G01*
X166783200Y-129808800D02*
G75*
G02*
X168282847Y-129808644I750000J-1700000D01*
G01*
X170283200Y-129808800D02*
G75*
G02*
X171782847Y-129808644I750000J-1700000D01*
G01*
X173783200Y-129808800D02*
G75*
G02*
X175282847Y-129808644I750000J-1700000D01*
G01*
D12*
%TO.C,kibuzzard-6696E02F*%
G36*
X167071987Y-130959211D02*
G01*
X167110113Y-131018662D01*
X167128207Y-131107192D01*
X167131599Y-131160019D01*
X167132730Y-131216400D01*
X167131599Y-131272620D01*
X167128207Y-131324962D01*
X167110113Y-131413492D01*
X167071341Y-131473589D01*
X167006074Y-131495560D01*
X166940162Y-131473589D01*
X166902036Y-131414138D01*
X166883942Y-131325608D01*
X166880549Y-131272781D01*
X166879418Y-131216400D01*
X166880549Y-131160180D01*
X166883942Y-131107838D01*
X166902036Y-131019308D01*
X166940162Y-130959211D01*
X167006074Y-130937240D01*
X167071987Y-130959211D01*
G37*
G36*
X168933835Y-130701342D02*
G01*
X169032349Y-130731226D01*
X169123141Y-130779755D01*
X169202720Y-130845064D01*
X169268029Y-130924643D01*
X169316558Y-131015435D01*
X169346441Y-131113949D01*
X169356532Y-131216400D01*
X169346441Y-131318851D01*
X169316558Y-131417365D01*
X169268029Y-131508157D01*
X169202720Y-131587736D01*
X169123141Y-131653045D01*
X169032349Y-131701574D01*
X168933835Y-131731458D01*
X168831384Y-131741548D01*
X168562132Y-131741548D01*
X168434184Y-131741548D01*
X167829338Y-131741548D01*
X167007367Y-131741548D01*
X166717868Y-131741548D01*
X166448616Y-131741548D01*
X166346165Y-131731458D01*
X166247651Y-131701574D01*
X166156859Y-131653045D01*
X166077280Y-131587736D01*
X166011971Y-131508157D01*
X165963442Y-131417365D01*
X165933559Y-131318851D01*
X165923468Y-131216400D01*
X166717868Y-131216400D01*
X166722512Y-131313452D01*
X166736446Y-131397822D01*
X166759669Y-131469510D01*
X166792181Y-131528516D01*
X166849119Y-131587034D01*
X166920847Y-131622144D01*
X167007367Y-131633847D01*
X167091804Y-131622144D01*
X167102063Y-131617046D01*
X168034830Y-131617046D01*
X168178288Y-131617046D01*
X168178288Y-131085867D01*
X168226322Y-131174540D01*
X168272202Y-131263070D01*
X168315929Y-131351457D01*
X168357501Y-131439843D01*
X168396920Y-131528373D01*
X168434184Y-131617046D01*
X168562132Y-131617046D01*
X168562132Y-130817046D01*
X168418675Y-130817046D01*
X168418675Y-131309453D01*
X168395897Y-131259049D01*
X168368918Y-131200891D01*
X168338546Y-131137886D01*
X168305590Y-131072943D01*
X168270856Y-131006868D01*
X168235153Y-130940471D01*
X168198966Y-130876335D01*
X168162779Y-130817046D01*
X168034830Y-130817046D01*
X168034830Y-131617046D01*
X167102063Y-131617046D01*
X167162456Y-131587034D01*
X167219321Y-131528516D01*
X167252116Y-131469510D01*
X167275541Y-131397822D01*
X167281220Y-131363734D01*
X167475218Y-131363734D01*
X167829338Y-131363734D01*
X167829338Y-131207353D01*
X167475218Y-131207353D01*
X167475218Y-131363734D01*
X167281220Y-131363734D01*
X167289596Y-131313452D01*
X167294281Y-131216400D01*
X167289677Y-131119348D01*
X167275864Y-131034978D01*
X167252843Y-130963290D01*
X167220614Y-130904284D01*
X167164035Y-130845766D01*
X167092522Y-130810656D01*
X167006074Y-130798953D01*
X166922211Y-130810656D01*
X166851560Y-130845766D01*
X166794120Y-130904284D01*
X166760759Y-130963290D01*
X166736931Y-131034978D01*
X166722633Y-131119348D01*
X166717868Y-131216400D01*
X165923468Y-131216400D01*
X165933559Y-131113949D01*
X165963442Y-131015435D01*
X166011971Y-130924643D01*
X166077280Y-130845064D01*
X166156859Y-130779755D01*
X166247651Y-130731226D01*
X166346165Y-130701342D01*
X166448616Y-130691252D01*
X166717868Y-130691252D01*
X168562132Y-130691252D01*
X168831384Y-130691252D01*
X168933835Y-130701342D01*
G37*
%TO.C,kibuzzard-6696E03F*%
G36*
X171866921Y-130906634D02*
G01*
X171911347Y-130928443D01*
X171939942Y-130967700D01*
X171949473Y-131027312D01*
X171939780Y-131090156D01*
X171910701Y-131131351D01*
X171862559Y-131154130D01*
X171795677Y-131161723D01*
X171731057Y-131161723D01*
X171731057Y-130903241D01*
X171770475Y-130900010D01*
X171809893Y-130899364D01*
X171866921Y-130906634D01*
G37*
G36*
X172481498Y-130663218D02*
G01*
X172577588Y-130692367D01*
X172666145Y-130739701D01*
X172743765Y-130803403D01*
X172807467Y-130881024D01*
X172854801Y-130969580D01*
X172883950Y-131065670D01*
X172893792Y-131165600D01*
X172883950Y-131265530D01*
X172854801Y-131361620D01*
X172807467Y-131450176D01*
X172743765Y-131527797D01*
X172666145Y-131591499D01*
X172577588Y-131638833D01*
X172481498Y-131667982D01*
X172381568Y-131677824D01*
X172112317Y-131677824D01*
X171731057Y-131677824D01*
X171356258Y-131677824D01*
X170279683Y-131677824D01*
X170010432Y-131677824D01*
X169910502Y-131667982D01*
X169814412Y-131638833D01*
X169725855Y-131591499D01*
X169648235Y-131527797D01*
X169584533Y-131450176D01*
X169537199Y-131361620D01*
X169508050Y-131265530D01*
X169498208Y-131165600D01*
X169508050Y-131065670D01*
X169537199Y-130969580D01*
X169573348Y-130901949D01*
X170279683Y-130901949D01*
X170454158Y-130901949D01*
X170454158Y-131438298D01*
X170279683Y-131438298D01*
X170279683Y-131570123D01*
X170787599Y-131570123D01*
X170787599Y-131438298D01*
X170614417Y-131438298D01*
X170614417Y-131316812D01*
X171002139Y-131316812D01*
X171356258Y-131316812D01*
X171356258Y-131160430D01*
X171002139Y-131160430D01*
X171002139Y-131316812D01*
X170614417Y-131316812D01*
X170614417Y-130901949D01*
X170787599Y-130901949D01*
X170787599Y-130780463D01*
X171572090Y-130780463D01*
X171572090Y-131570123D01*
X171731057Y-131570123D01*
X171731057Y-131300010D01*
X171787922Y-131300010D01*
X171883489Y-131292902D01*
X171963403Y-131271577D01*
X172027664Y-131236036D01*
X172074693Y-131184555D01*
X172102911Y-131115412D01*
X172112317Y-131028605D01*
X172102983Y-130942660D01*
X172074980Y-130874378D01*
X172028310Y-130823758D01*
X171964695Y-130788935D01*
X171885858Y-130768041D01*
X171791800Y-130761077D01*
X171741396Y-130762369D01*
X171683237Y-130765600D01*
X171624433Y-130771416D01*
X171572090Y-130780463D01*
X170787599Y-130780463D01*
X170787599Y-130770123D01*
X170279683Y-130770123D01*
X170279683Y-130901949D01*
X169573348Y-130901949D01*
X169584533Y-130881024D01*
X169648235Y-130803403D01*
X169725855Y-130739701D01*
X169814412Y-130692367D01*
X169910502Y-130663218D01*
X170010432Y-130653376D01*
X170279683Y-130653376D01*
X172112317Y-130653376D01*
X172381568Y-130653376D01*
X172481498Y-130663218D01*
G37*
%TO.C,kibuzzard-6696DFD9*%
G36*
X187953372Y-131290713D02*
G01*
X187990205Y-131374074D01*
X187977281Y-131431586D01*
X187944325Y-131466481D01*
X187898445Y-131483282D01*
X187845456Y-131487805D01*
X187806037Y-131486513D01*
X187769204Y-131482636D01*
X187769204Y-131265511D01*
X187854503Y-131265511D01*
X187953372Y-131290713D01*
G37*
G36*
X187884228Y-130948226D02*
G01*
X187920416Y-130961150D01*
X187944971Y-130988290D01*
X187954018Y-131034171D01*
X187923000Y-131107192D01*
X187831239Y-131133686D01*
X187769204Y-131133686D01*
X187769204Y-130950164D01*
X187804099Y-130946287D01*
X187841579Y-130944995D01*
X187884228Y-130948226D01*
G37*
G36*
X189797552Y-130708948D02*
G01*
X189894612Y-130738391D01*
X189984062Y-130786203D01*
X190062466Y-130850547D01*
X190126811Y-130928951D01*
X190174623Y-131018402D01*
X190204066Y-131115462D01*
X190214007Y-131216400D01*
X190204066Y-131317338D01*
X190174623Y-131414398D01*
X190126811Y-131503849D01*
X190062466Y-131582253D01*
X189984062Y-131646597D01*
X189894612Y-131694409D01*
X189797552Y-131723852D01*
X189696614Y-131733794D01*
X189427362Y-131733794D01*
X188686813Y-131733794D01*
X187832532Y-131733794D01*
X187610238Y-131733794D01*
X187340986Y-131733794D01*
X187240048Y-131723852D01*
X187142988Y-131694409D01*
X187053538Y-131646597D01*
X186975134Y-131582253D01*
X186910789Y-131503849D01*
X186862977Y-131414398D01*
X186833534Y-131317338D01*
X186823593Y-131216400D01*
X186833534Y-131115462D01*
X186862977Y-131018402D01*
X186910789Y-130928951D01*
X186975134Y-130850547D01*
X187004932Y-130826093D01*
X187610238Y-130826093D01*
X187610238Y-131602830D01*
X187666134Y-131613007D01*
X187722677Y-131620277D01*
X187778574Y-131624639D01*
X187832532Y-131626093D01*
X187896344Y-131623024D01*
X187943405Y-131615754D01*
X188924616Y-131615754D01*
X189427362Y-131615754D01*
X189427362Y-131483928D01*
X189084874Y-131483928D01*
X189084874Y-130815754D01*
X188924616Y-130815754D01*
X188924616Y-131615754D01*
X187943405Y-131615754D01*
X187955957Y-131613815D01*
X188009592Y-131597337D01*
X188055472Y-131572458D01*
X188122031Y-131494914D01*
X188140448Y-131440471D01*
X188146587Y-131374074D01*
X188145029Y-131362442D01*
X188332693Y-131362442D01*
X188686813Y-131362442D01*
X188686813Y-131206061D01*
X188332693Y-131206061D01*
X188332693Y-131362442D01*
X188145029Y-131362442D01*
X188139317Y-131319793D01*
X188117508Y-131268096D01*
X188075343Y-131222862D01*
X188007007Y-131187967D01*
X188081320Y-131118177D01*
X188102160Y-131071004D01*
X188109107Y-131017369D01*
X188097475Y-130942410D01*
X188053533Y-130874558D01*
X187964357Y-130825447D01*
X187899091Y-130811392D01*
X187817023Y-130806707D01*
X187709753Y-130812523D01*
X187610238Y-130826093D01*
X187004932Y-130826093D01*
X187053538Y-130786203D01*
X187142988Y-130738391D01*
X187240048Y-130708948D01*
X187340986Y-130699006D01*
X187610238Y-130699006D01*
X189427362Y-130699006D01*
X189696614Y-130699006D01*
X189797552Y-130708948D01*
G37*
%TO.C,kibuzzard-6696DFC0*%
G36*
X184413277Y-131057434D02*
G01*
X184433955Y-131137563D01*
X184451403Y-131217046D01*
X184466912Y-131299760D01*
X184310531Y-131299760D01*
X184326686Y-131217046D01*
X184344779Y-131137563D01*
X184365458Y-131057434D01*
X184389367Y-130971489D01*
X184413277Y-131057434D01*
G37*
G36*
X186316309Y-130718455D02*
G01*
X186411550Y-130747346D01*
X186499325Y-130794262D01*
X186576260Y-130857401D01*
X186639399Y-130934337D01*
X186686316Y-131022111D01*
X186715207Y-131117353D01*
X186724962Y-131216400D01*
X186715207Y-131315447D01*
X186686316Y-131410689D01*
X186639399Y-131498463D01*
X186576260Y-131575399D01*
X186499325Y-131638538D01*
X186411550Y-131685454D01*
X186316309Y-131714345D01*
X186217262Y-131724101D01*
X185948010Y-131724101D01*
X185213923Y-131724101D01*
X184531532Y-131724101D01*
X184079190Y-131724101D01*
X183809938Y-131724101D01*
X183710891Y-131714345D01*
X183615650Y-131685454D01*
X183527875Y-131638538D01*
X183500900Y-131616400D01*
X184079190Y-131616400D01*
X184244618Y-131616400D01*
X184280805Y-131431586D01*
X184494052Y-131431586D01*
X184531532Y-131616400D01*
X184702130Y-131616400D01*
X185418123Y-131616400D01*
X185577089Y-131616400D01*
X185577089Y-131263573D01*
X185789044Y-131263573D01*
X185789044Y-131616400D01*
X185948010Y-131616400D01*
X185948010Y-130816400D01*
X185789044Y-130816400D01*
X185789044Y-131131747D01*
X185577089Y-131131747D01*
X185577089Y-130816400D01*
X185418123Y-130816400D01*
X185418123Y-131616400D01*
X184702130Y-131616400D01*
X184680805Y-131525699D01*
X184659222Y-131437634D01*
X184640162Y-131363088D01*
X184859804Y-131363088D01*
X185213923Y-131363088D01*
X185213923Y-131206707D01*
X184859804Y-131206707D01*
X184859804Y-131363088D01*
X184640162Y-131363088D01*
X184637380Y-131352206D01*
X184615280Y-131269415D01*
X184592921Y-131189259D01*
X184564771Y-131092046D01*
X184536540Y-130997499D01*
X184508228Y-130905616D01*
X184479836Y-130816400D01*
X184306653Y-130816400D01*
X184279270Y-130904889D01*
X184251403Y-130995883D01*
X184223051Y-131089381D01*
X184194214Y-131185382D01*
X184171002Y-131264865D01*
X184147894Y-131347709D01*
X184124889Y-131433912D01*
X184101988Y-131523476D01*
X184079190Y-131616400D01*
X183500900Y-131616400D01*
X183450940Y-131575399D01*
X183387801Y-131498463D01*
X183340884Y-131410689D01*
X183311993Y-131315447D01*
X183302238Y-131216400D01*
X183311993Y-131117353D01*
X183340884Y-131022111D01*
X183387801Y-130934337D01*
X183450940Y-130857401D01*
X183527875Y-130794262D01*
X183615650Y-130747346D01*
X183710891Y-130718455D01*
X183809938Y-130708699D01*
X184079190Y-130708699D01*
X185948010Y-130708699D01*
X186217262Y-130708699D01*
X186316309Y-130718455D01*
G37*
%TO.C,kibuzzard-6696DEF0*%
G36*
X113314597Y-130709582D02*
G01*
X113411535Y-130738988D01*
X113500874Y-130786740D01*
X113579180Y-130851004D01*
X113643444Y-130929311D01*
X113691197Y-131018649D01*
X113720603Y-131115588D01*
X113730532Y-131216400D01*
X113720603Y-131317212D01*
X113691197Y-131414151D01*
X113643444Y-131503489D01*
X113579180Y-131581796D01*
X113500874Y-131646060D01*
X113411535Y-131693812D01*
X113314597Y-131723218D01*
X113213785Y-131733147D01*
X112944533Y-131733147D01*
X112554226Y-131733147D01*
X112264727Y-131733147D01*
X111614646Y-131733147D01*
X111083467Y-131733147D01*
X110814215Y-131733147D01*
X110713403Y-131723218D01*
X110616465Y-131693812D01*
X110527126Y-131646060D01*
X110448820Y-131581796D01*
X110384556Y-131503489D01*
X110336803Y-131414151D01*
X110307397Y-131317212D01*
X110297468Y-131216400D01*
X110307397Y-131115588D01*
X110336803Y-131018649D01*
X110350958Y-130992167D01*
X111083467Y-130992167D01*
X111135163Y-131123993D01*
X111214000Y-131092329D01*
X111296714Y-131046448D01*
X111296714Y-131493621D01*
X111128701Y-131493621D01*
X111128701Y-131625447D01*
X111614646Y-131625447D01*
X111614646Y-131493621D01*
X111455680Y-131493621D01*
X111455680Y-130913331D01*
X111723208Y-130913331D01*
X111802045Y-131024478D01*
X111883467Y-130963734D01*
X111962304Y-130945641D01*
X112037263Y-130972135D01*
X112066989Y-131047741D01*
X112043079Y-131116238D01*
X111982336Y-131186028D01*
X111944210Y-131223024D01*
X111903499Y-131261634D01*
X111862788Y-131302668D01*
X111824662Y-131346933D01*
X111791060Y-131394914D01*
X111763919Y-131447095D01*
X111745987Y-131503961D01*
X111740010Y-131565996D01*
X111739363Y-131593137D01*
X111742595Y-131625447D01*
X112264727Y-131625447D01*
X112264727Y-131493621D01*
X111920947Y-131493621D01*
X111934517Y-131450972D01*
X111967473Y-131405091D01*
X112008830Y-131361150D01*
X112047603Y-131324316D01*
X112113515Y-131259696D01*
X112171674Y-131189906D01*
X112213031Y-131115592D01*
X112228540Y-131036109D01*
X112207861Y-130935948D01*
X112152288Y-130864219D01*
X112079442Y-130825447D01*
X112330640Y-130825447D01*
X112345502Y-130897822D01*
X112366827Y-130988290D01*
X112383916Y-131055998D01*
X112402440Y-131126434D01*
X112422401Y-131199599D01*
X112443510Y-131274199D01*
X112465481Y-131348944D01*
X112488313Y-131423831D01*
X112522239Y-131530455D01*
X112554226Y-131625447D01*
X112718362Y-131625447D01*
X112743061Y-131556590D01*
X112767186Y-131486154D01*
X112790737Y-131414138D01*
X112813354Y-131341763D01*
X112834679Y-131270250D01*
X112854711Y-131199599D01*
X112882174Y-131096691D01*
X112906407Y-130998629D01*
X112927247Y-130907515D01*
X112944533Y-130825447D01*
X112777813Y-130825447D01*
X112766181Y-130892652D01*
X112751964Y-130970196D01*
X112735809Y-131054041D01*
X112718362Y-131140148D01*
X112699622Y-131226739D01*
X112679590Y-131312038D01*
X112658911Y-131392006D01*
X112638233Y-131462604D01*
X112617393Y-131391037D01*
X112596229Y-131310746D01*
X112575551Y-131225447D01*
X112556165Y-131138856D01*
X112538233Y-131052911D01*
X112521916Y-130969550D01*
X112508346Y-130892490D01*
X112498653Y-130825447D01*
X112330640Y-130825447D01*
X112079442Y-130825447D01*
X112072158Y-130821570D01*
X111977813Y-130807353D01*
X111910446Y-130813815D01*
X111842756Y-130833201D01*
X111778943Y-130866158D01*
X111723208Y-130913331D01*
X111455680Y-130913331D01*
X111455680Y-130825447D01*
X111347118Y-130825447D01*
X111291544Y-130875851D01*
X111223047Y-130922377D01*
X111150672Y-130962442D01*
X111083467Y-130992167D01*
X110350958Y-130992167D01*
X110384556Y-130929311D01*
X110448820Y-130851004D01*
X110527126Y-130786740D01*
X110616465Y-130738988D01*
X110713403Y-130709582D01*
X110814215Y-130699653D01*
X111083467Y-130699653D01*
X112944533Y-130699653D01*
X113213785Y-130699653D01*
X113314597Y-130709582D01*
G37*
%TD*%
%LPC*%
D13*
%TO.C,J3*%
X153466800Y-127508000D03*
D14*
X156966800Y-127508000D03*
%TD*%
D15*
%TO.C,C2*%
X120842700Y-118121400D03*
X120842700Y-120196400D03*
%TD*%
%TO.C,C1*%
X109463500Y-118121400D03*
X109463500Y-120196400D03*
%TD*%
D13*
%TO.C,J4*%
X123438700Y-127540900D03*
D14*
X126938700Y-127540900D03*
%TD*%
D13*
%TO.C,J5*%
X112110300Y-127540900D03*
D14*
X115610300Y-127540900D03*
%TD*%
D16*
%TO.C,R1*%
X148234400Y-126476000D03*
X148234400Y-124476000D03*
%TD*%
D17*
%TO.C,REF\u002A\u002A*%
X105410000Y-133096000D03*
%TD*%
%TO.C,REF\u002A\u002A*%
X139852400Y-120091200D03*
%TD*%
D13*
%TO.C,J1*%
X181452300Y-127540900D03*
D14*
X184952300Y-127540900D03*
X188452300Y-127540900D03*
X191952300Y-127540900D03*
%TD*%
D16*
%TO.C,R2*%
X148234400Y-122158000D03*
X148234400Y-120158000D03*
%TD*%
D13*
%TO.C,J2*%
X164033200Y-127558800D03*
D14*
X167533200Y-127558800D03*
X171033200Y-127558800D03*
X174533200Y-127558800D03*
%TD*%
D17*
%TO.C,REF\u002A\u002A*%
X198628000Y-133096000D03*
%TD*%
D18*
%TO.C,J10*%
X165348800Y-119126000D03*
D19*
X167888800Y-119126000D03*
X170428800Y-119126000D03*
X172968800Y-119126000D03*
%TD*%
D18*
%TO.C,J8*%
X124038100Y-119057300D03*
D19*
X126578100Y-119057300D03*
%TD*%
D18*
%TO.C,J6*%
X153868000Y-119126000D03*
D19*
X156408000Y-119126000D03*
%TD*%
D18*
%TO.C,J7*%
X183078000Y-119126000D03*
D19*
X185618000Y-119126000D03*
X188158000Y-119126000D03*
X190698000Y-119126000D03*
%TD*%
D18*
%TO.C,J9*%
X112562300Y-119057300D03*
D19*
X115102300Y-119057300D03*
%TD*%
%LPD*%
M02*
