%TF.GenerationSoftware,KiCad,Pcbnew,8.0.3*%
%TF.CreationDate,2024-08-08T19:12:20+01:00*%
%TF.ProjectId,FCPC Breakout PCB,46435043-2042-4726-9561-6b6f75742050,V1.1*%
%TF.SameCoordinates,Original*%
%TF.FileFunction,Copper,L2,Bot*%
%TF.FilePolarity,Positive*%
%FSLAX46Y46*%
G04 Gerber Fmt 4.6, Leading zero omitted, Abs format (unit mm)*
G04 Created by KiCad (PCBNEW 8.0.3) date 2024-08-08 19:12:20*
%MOMM*%
%LPD*%
G01*
G04 APERTURE LIST*
G04 Aperture macros list*
%AMRoundRect*
0 Rectangle with rounded corners*
0 $1 Rounding radius*
0 $2 $3 $4 $5 $6 $7 $8 $9 X,Y pos of 4 corners*
0 Add a 4 corners polygon primitive as box body*
4,1,4,$2,$3,$4,$5,$6,$7,$8,$9,$2,$3,0*
0 Add four circle primitives for the rounded corners*
1,1,$1+$1,$2,$3*
1,1,$1+$1,$4,$5*
1,1,$1+$1,$6,$7*
1,1,$1+$1,$8,$9*
0 Add four rect primitives between the rounded corners*
20,1,$1+$1,$2,$3,$4,$5,0*
20,1,$1+$1,$4,$5,$6,$7,0*
20,1,$1+$1,$6,$7,$8,$9,0*
20,1,$1+$1,$8,$9,$2,$3,0*%
G04 Aperture macros list end*
%TA.AperFunction,ComponentPad*%
%ADD10RoundRect,0.250000X-0.650000X-1.550000X0.650000X-1.550000X0.650000X1.550000X-0.650000X1.550000X0*%
%TD*%
%TA.AperFunction,ComponentPad*%
%ADD11O,1.800000X3.600000*%
%TD*%
%TA.AperFunction,ComponentPad*%
%ADD12R,1.700000X1.700000*%
%TD*%
%TA.AperFunction,ComponentPad*%
%ADD13O,1.700000X1.700000*%
%TD*%
%TA.AperFunction,ViaPad*%
%ADD14C,0.600000*%
%TD*%
%TA.AperFunction,ViaPad*%
%ADD15C,0.800000*%
%TD*%
G04 APERTURE END LIST*
D10*
%TO.P,J3,1,Pin_1*%
%TO.N,UART TX*%
X153466800Y-127508000D03*
D11*
%TO.P,J3,2,Pin_2*%
%TO.N,UART RX*%
X156966800Y-127508000D03*
%TD*%
D10*
%TO.P,J4,1,Pin_1*%
%TO.N,+5V*%
X123438700Y-127540900D03*
D11*
%TO.P,J4,2,Pin_2*%
%TO.N,GND*%
X126938700Y-127540900D03*
%TD*%
D10*
%TO.P,J5,1,Pin_1*%
%TO.N,+12V*%
X112110300Y-127540900D03*
D11*
%TO.P,J5,2,Pin_2*%
%TO.N,GND*%
X115610300Y-127540900D03*
%TD*%
D10*
%TO.P,J1,1,Pin_1*%
%TO.N,CANAL*%
X181452300Y-127540900D03*
D11*
%TO.P,J1,2,Pin_2*%
%TO.N,CANAH*%
X184952300Y-127540900D03*
%TO.P,J1,3,Pin_3*%
%TO.N,CANBL*%
X188452300Y-127540900D03*
%TO.P,J1,4,Pin_4*%
%TO.N,CANBH*%
X191952300Y-127540900D03*
%TD*%
D10*
%TO.P,J2,1,Pin_1*%
%TO.N,O RS485 P*%
X164033200Y-127558800D03*
D11*
%TO.P,J2,2,Pin_2*%
%TO.N,O RS485 N*%
X167533200Y-127558800D03*
%TO.P,J2,3,Pin_3*%
%TO.N,I RS485 P*%
X171033200Y-127558800D03*
%TO.P,J2,4,Pin_4*%
%TO.N,I RS485 N*%
X174533200Y-127558800D03*
%TD*%
D12*
%TO.P,J10,1,Pin_1*%
%TO.N,O RS485 P*%
X165348800Y-119126000D03*
D13*
%TO.P,J10,2,Pin_2*%
%TO.N,O RS485 N*%
X167888800Y-119126000D03*
%TO.P,J10,3,Pin_3*%
%TO.N,I RS485 P*%
X170428800Y-119126000D03*
%TO.P,J10,4,Pin_4*%
%TO.N,I RS485 N*%
X172968800Y-119126000D03*
%TD*%
D12*
%TO.P,J8,1,Pin_1*%
%TO.N,+5V*%
X124038100Y-119057300D03*
D13*
%TO.P,J8,2,Pin_2*%
%TO.N,GND*%
X126578100Y-119057300D03*
%TD*%
D12*
%TO.P,J6,1,Pin_1*%
%TO.N,UART TX 3.3V*%
X153868000Y-119126000D03*
D13*
%TO.P,J6,2,Pin_2*%
%TO.N,UART RX*%
X156408000Y-119126000D03*
%TD*%
D12*
%TO.P,J7,1,Pin_1*%
%TO.N,CANAL*%
X183078000Y-119126000D03*
D13*
%TO.P,J7,2,Pin_2*%
%TO.N,CANAH*%
X185618000Y-119126000D03*
%TO.P,J7,3,Pin_3*%
%TO.N,CANBL*%
X188158000Y-119126000D03*
%TO.P,J7,4,Pin_4*%
%TO.N,CANBH*%
X190698000Y-119126000D03*
%TD*%
D12*
%TO.P,J9,1,Pin_1*%
%TO.N,+12V*%
X112562300Y-119057300D03*
D13*
%TO.P,J9,2,Pin_2*%
%TO.N,GND*%
X115102300Y-119057300D03*
%TD*%
D14*
%TO.N,GND*%
X149148800Y-119075200D03*
D15*
X108142700Y-120327300D03*
X119471100Y-120327300D03*
D14*
X147320000Y-119075200D03*
%TD*%
%TA.AperFunction,Conductor*%
%TO.N,GND*%
G36*
X201626539Y-117156985D02*
G01*
X201672294Y-117209789D01*
X201683500Y-117261300D01*
X201683500Y-135976700D01*
X201663815Y-136043739D01*
X201611011Y-136089494D01*
X201559500Y-136100700D01*
X102529300Y-136100700D01*
X102462261Y-136081015D01*
X102416506Y-136028211D01*
X102405300Y-135976700D01*
X102405300Y-132974711D01*
X103559500Y-132974711D01*
X103559500Y-133217288D01*
X103591161Y-133457785D01*
X103653947Y-133692104D01*
X103746773Y-133916205D01*
X103746776Y-133916212D01*
X103868064Y-134126289D01*
X103868066Y-134126292D01*
X103868067Y-134126293D01*
X104015733Y-134318736D01*
X104015739Y-134318743D01*
X104187256Y-134490260D01*
X104187262Y-134490265D01*
X104379711Y-134637936D01*
X104589788Y-134759224D01*
X104813900Y-134852054D01*
X105048211Y-134914838D01*
X105228586Y-134938584D01*
X105288711Y-134946500D01*
X105288712Y-134946500D01*
X105531289Y-134946500D01*
X105579388Y-134940167D01*
X105771789Y-134914838D01*
X106006100Y-134852054D01*
X106230212Y-134759224D01*
X106440289Y-134637936D01*
X106632738Y-134490265D01*
X106804265Y-134318738D01*
X106951936Y-134126289D01*
X107073224Y-133916212D01*
X107166054Y-133692100D01*
X107228838Y-133457789D01*
X107260500Y-133217288D01*
X107260500Y-132974712D01*
X107260500Y-132974711D01*
X196777500Y-132974711D01*
X196777500Y-133217288D01*
X196809161Y-133457785D01*
X196871947Y-133692104D01*
X196964773Y-133916205D01*
X196964776Y-133916212D01*
X197086064Y-134126289D01*
X197086066Y-134126292D01*
X197086067Y-134126293D01*
X197233733Y-134318736D01*
X197233739Y-134318743D01*
X197405256Y-134490260D01*
X197405262Y-134490265D01*
X197597711Y-134637936D01*
X197807788Y-134759224D01*
X198031900Y-134852054D01*
X198266211Y-134914838D01*
X198446586Y-134938584D01*
X198506711Y-134946500D01*
X198506712Y-134946500D01*
X198749289Y-134946500D01*
X198797388Y-134940167D01*
X198989789Y-134914838D01*
X199224100Y-134852054D01*
X199448212Y-134759224D01*
X199658289Y-134637936D01*
X199850738Y-134490265D01*
X200022265Y-134318738D01*
X200169936Y-134126289D01*
X200291224Y-133916212D01*
X200384054Y-133692100D01*
X200446838Y-133457789D01*
X200478500Y-133217288D01*
X200478500Y-132974712D01*
X200446838Y-132734211D01*
X200384054Y-132499900D01*
X200291224Y-132275788D01*
X200169936Y-132065711D01*
X200022265Y-131873262D01*
X200022260Y-131873256D01*
X199850743Y-131701739D01*
X199850736Y-131701733D01*
X199658293Y-131554067D01*
X199658292Y-131554066D01*
X199658289Y-131554064D01*
X199448212Y-131432776D01*
X199448205Y-131432773D01*
X199224104Y-131339947D01*
X198989785Y-131277161D01*
X198749289Y-131245500D01*
X198749288Y-131245500D01*
X198506712Y-131245500D01*
X198506711Y-131245500D01*
X198266214Y-131277161D01*
X198031895Y-131339947D01*
X197807794Y-131432773D01*
X197807785Y-131432777D01*
X197597706Y-131554067D01*
X197405263Y-131701733D01*
X197405256Y-131701739D01*
X197233739Y-131873256D01*
X197233733Y-131873263D01*
X197086067Y-132065706D01*
X196964777Y-132275785D01*
X196964773Y-132275794D01*
X196871947Y-132499895D01*
X196809161Y-132734214D01*
X196777500Y-132974711D01*
X107260500Y-132974711D01*
X107228838Y-132734211D01*
X107166054Y-132499900D01*
X107073224Y-132275788D01*
X106951936Y-132065711D01*
X106804265Y-131873262D01*
X106804260Y-131873256D01*
X106632743Y-131701739D01*
X106632736Y-131701733D01*
X106440293Y-131554067D01*
X106440292Y-131554066D01*
X106440289Y-131554064D01*
X106230212Y-131432776D01*
X106230205Y-131432773D01*
X106006104Y-131339947D01*
X105771785Y-131277161D01*
X105531289Y-131245500D01*
X105531288Y-131245500D01*
X105288712Y-131245500D01*
X105288711Y-131245500D01*
X105048214Y-131277161D01*
X104813895Y-131339947D01*
X104589794Y-131432773D01*
X104589785Y-131432777D01*
X104379706Y-131554067D01*
X104187263Y-131701733D01*
X104187256Y-131701739D01*
X104015739Y-131873256D01*
X104015733Y-131873263D01*
X103868067Y-132065706D01*
X103746777Y-132275785D01*
X103746773Y-132275794D01*
X103653947Y-132499895D01*
X103591161Y-132734214D01*
X103559500Y-132974711D01*
X102405300Y-132974711D01*
X102405300Y-125940883D01*
X110709800Y-125940883D01*
X110709800Y-129140901D01*
X110709801Y-129140918D01*
X110720300Y-129243696D01*
X110720301Y-129243699D01*
X110756608Y-129353265D01*
X110775486Y-129410234D01*
X110867588Y-129559556D01*
X110991644Y-129683612D01*
X111140966Y-129775714D01*
X111307503Y-129830899D01*
X111410291Y-129841400D01*
X112810308Y-129841399D01*
X112913097Y-129830899D01*
X113079634Y-129775714D01*
X113228956Y-129683612D01*
X113353012Y-129559556D01*
X113445114Y-129410234D01*
X113500299Y-129243697D01*
X113510800Y-129140909D01*
X113510799Y-126530718D01*
X114210300Y-126530718D01*
X114210300Y-127290900D01*
X115061818Y-127290900D01*
X115051189Y-127309309D01*
X115010300Y-127461909D01*
X115010300Y-127619891D01*
X115051189Y-127772491D01*
X115061818Y-127790900D01*
X114210300Y-127790900D01*
X114210300Y-128551081D01*
X114244773Y-128768735D01*
X114312867Y-128978310D01*
X114412913Y-129174660D01*
X114542442Y-129352941D01*
X114698258Y-129508757D01*
X114876539Y-129638286D01*
X115072889Y-129738332D01*
X115282463Y-129806426D01*
X115360299Y-129818754D01*
X115360300Y-129818754D01*
X115360300Y-128089382D01*
X115378709Y-128100011D01*
X115531309Y-128140900D01*
X115689291Y-128140900D01*
X115841891Y-128100011D01*
X115860300Y-128089382D01*
X115860300Y-129818754D01*
X115938134Y-129806426D01*
X115938137Y-129806426D01*
X116147710Y-129738332D01*
X116344060Y-129638286D01*
X116522341Y-129508757D01*
X116678157Y-129352941D01*
X116807686Y-129174660D01*
X116907732Y-128978310D01*
X116975826Y-128768735D01*
X117010300Y-128551081D01*
X117010300Y-127790900D01*
X116158782Y-127790900D01*
X116169411Y-127772491D01*
X116210300Y-127619891D01*
X116210300Y-127461909D01*
X116169411Y-127309309D01*
X116158782Y-127290900D01*
X117010300Y-127290900D01*
X117010300Y-126530718D01*
X116975826Y-126313064D01*
X116907732Y-126103489D01*
X116824880Y-125940883D01*
X122038200Y-125940883D01*
X122038200Y-129140901D01*
X122038201Y-129140918D01*
X122048700Y-129243696D01*
X122048701Y-129243699D01*
X122085008Y-129353265D01*
X122103886Y-129410234D01*
X122195988Y-129559556D01*
X122320044Y-129683612D01*
X122469366Y-129775714D01*
X122635903Y-129830899D01*
X122738691Y-129841400D01*
X124138708Y-129841399D01*
X124241497Y-129830899D01*
X124408034Y-129775714D01*
X124557356Y-129683612D01*
X124681412Y-129559556D01*
X124773514Y-129410234D01*
X124828699Y-129243697D01*
X124839200Y-129140909D01*
X124839199Y-126530718D01*
X125538700Y-126530718D01*
X125538700Y-127290900D01*
X126390218Y-127290900D01*
X126379589Y-127309309D01*
X126338700Y-127461909D01*
X126338700Y-127619891D01*
X126379589Y-127772491D01*
X126390218Y-127790900D01*
X125538700Y-127790900D01*
X125538700Y-128551081D01*
X125573173Y-128768735D01*
X125641267Y-128978310D01*
X125741313Y-129174660D01*
X125870842Y-129352941D01*
X126026658Y-129508757D01*
X126204939Y-129638286D01*
X126401289Y-129738332D01*
X126610863Y-129806426D01*
X126688699Y-129818754D01*
X126688700Y-129818754D01*
X126688700Y-128089382D01*
X126707109Y-128100011D01*
X126859709Y-128140900D01*
X127017691Y-128140900D01*
X127170291Y-128100011D01*
X127188700Y-128089382D01*
X127188700Y-129818754D01*
X127266534Y-129806426D01*
X127266537Y-129806426D01*
X127476110Y-129738332D01*
X127672460Y-129638286D01*
X127850741Y-129508757D01*
X128006557Y-129352941D01*
X128136086Y-129174660D01*
X128236132Y-128978310D01*
X128304226Y-128768735D01*
X128338700Y-128551081D01*
X128338700Y-127790900D01*
X127487182Y-127790900D01*
X127497811Y-127772491D01*
X127538700Y-127619891D01*
X127538700Y-127461909D01*
X127497811Y-127309309D01*
X127487182Y-127290900D01*
X128338700Y-127290900D01*
X128338700Y-126530718D01*
X128304226Y-126313064D01*
X128236132Y-126103489D01*
X128136516Y-125907983D01*
X152066300Y-125907983D01*
X152066300Y-129108001D01*
X152066301Y-129108018D01*
X152076800Y-129210796D01*
X152076801Y-129210799D01*
X152131985Y-129377331D01*
X152131987Y-129377336D01*
X152163321Y-129428136D01*
X152224088Y-129526656D01*
X152348144Y-129650712D01*
X152497466Y-129742814D01*
X152664003Y-129797999D01*
X152766791Y-129808500D01*
X154166808Y-129808499D01*
X154269597Y-129797999D01*
X154436134Y-129742814D01*
X154585456Y-129650712D01*
X154709512Y-129526656D01*
X154801614Y-129377334D01*
X154856799Y-129210797D01*
X154867300Y-129108009D01*
X154867299Y-126497778D01*
X155566300Y-126497778D01*
X155566300Y-128518221D01*
X155600785Y-128735952D01*
X155668903Y-128945603D01*
X155668904Y-128945606D01*
X155694789Y-128996406D01*
X155768422Y-129140918D01*
X155768987Y-129142025D01*
X155898552Y-129320358D01*
X155898556Y-129320363D01*
X156054436Y-129476243D01*
X156054441Y-129476247D01*
X156169109Y-129559557D01*
X156232778Y-129605815D01*
X156332472Y-129656612D01*
X156429193Y-129705895D01*
X156429196Y-129705896D01*
X156529026Y-129738332D01*
X156638849Y-129774015D01*
X156856578Y-129808500D01*
X156856579Y-129808500D01*
X157077021Y-129808500D01*
X157077022Y-129808500D01*
X157294751Y-129774015D01*
X157504406Y-129705895D01*
X157700822Y-129605815D01*
X157879165Y-129476242D01*
X158035042Y-129320365D01*
X158164615Y-129142022D01*
X158264695Y-128945606D01*
X158332815Y-128735951D01*
X158367300Y-128518222D01*
X158367300Y-126497778D01*
X158332815Y-126280049D01*
X158281201Y-126121194D01*
X158264696Y-126070396D01*
X158264695Y-126070393D01*
X158207830Y-125958791D01*
X158207826Y-125958783D01*
X162632700Y-125958783D01*
X162632700Y-129158801D01*
X162632701Y-129158818D01*
X162643200Y-129261596D01*
X162643201Y-129261599D01*
X162692455Y-129410236D01*
X162698386Y-129428134D01*
X162790488Y-129577456D01*
X162914544Y-129701512D01*
X163063866Y-129793614D01*
X163230403Y-129848799D01*
X163333191Y-129859300D01*
X164733208Y-129859299D01*
X164835997Y-129848799D01*
X165002534Y-129793614D01*
X165151856Y-129701512D01*
X165275912Y-129577456D01*
X165368014Y-129428134D01*
X165423199Y-129261597D01*
X165433700Y-129158809D01*
X165433699Y-126548578D01*
X166132700Y-126548578D01*
X166132700Y-128569021D01*
X166167185Y-128786752D01*
X166235303Y-128996403D01*
X166235304Y-128996406D01*
X166292170Y-129108009D01*
X166326264Y-129174922D01*
X166335387Y-129192825D01*
X166464952Y-129371158D01*
X166464956Y-129371163D01*
X166620836Y-129527043D01*
X166620841Y-129527047D01*
X166729253Y-129605812D01*
X166799178Y-129656615D01*
X166927575Y-129722037D01*
X166995593Y-129756695D01*
X166995596Y-129756696D01*
X167048897Y-129774014D01*
X167205249Y-129824815D01*
X167422978Y-129859300D01*
X167422979Y-129859300D01*
X167643421Y-129859300D01*
X167643422Y-129859300D01*
X167861151Y-129824815D01*
X168070806Y-129756695D01*
X168267222Y-129656615D01*
X168445565Y-129527042D01*
X168601442Y-129371165D01*
X168731015Y-129192822D01*
X168831095Y-128996406D01*
X168899215Y-128786751D01*
X168933700Y-128569022D01*
X168933700Y-126548578D01*
X169632700Y-126548578D01*
X169632700Y-128569021D01*
X169667185Y-128786752D01*
X169735303Y-128996403D01*
X169735304Y-128996406D01*
X169792170Y-129108009D01*
X169826264Y-129174922D01*
X169835387Y-129192825D01*
X169964952Y-129371158D01*
X169964956Y-129371163D01*
X170120836Y-129527043D01*
X170120841Y-129527047D01*
X170229253Y-129605812D01*
X170299178Y-129656615D01*
X170427575Y-129722037D01*
X170495593Y-129756695D01*
X170495596Y-129756696D01*
X170548897Y-129774014D01*
X170705249Y-129824815D01*
X170922978Y-129859300D01*
X170922979Y-129859300D01*
X171143421Y-129859300D01*
X171143422Y-129859300D01*
X171361151Y-129824815D01*
X171570806Y-129756695D01*
X171767222Y-129656615D01*
X171945565Y-129527042D01*
X172101442Y-129371165D01*
X172231015Y-129192822D01*
X172331095Y-128996406D01*
X172399215Y-128786751D01*
X172433700Y-128569022D01*
X172433700Y-126548578D01*
X173132700Y-126548578D01*
X173132700Y-128569021D01*
X173167185Y-128786752D01*
X173235303Y-128996403D01*
X173235304Y-128996406D01*
X173292170Y-129108009D01*
X173326264Y-129174922D01*
X173335387Y-129192825D01*
X173464952Y-129371158D01*
X173464956Y-129371163D01*
X173620836Y-129527043D01*
X173620841Y-129527047D01*
X173729253Y-129605812D01*
X173799178Y-129656615D01*
X173927575Y-129722037D01*
X173995593Y-129756695D01*
X173995596Y-129756696D01*
X174048897Y-129774014D01*
X174205249Y-129824815D01*
X174422978Y-129859300D01*
X174422979Y-129859300D01*
X174643421Y-129859300D01*
X174643422Y-129859300D01*
X174861151Y-129824815D01*
X175070806Y-129756695D01*
X175267222Y-129656615D01*
X175445565Y-129527042D01*
X175601442Y-129371165D01*
X175731015Y-129192822D01*
X175831095Y-128996406D01*
X175899215Y-128786751D01*
X175933700Y-128569022D01*
X175933700Y-126548578D01*
X175899215Y-126330849D01*
X175831095Y-126121194D01*
X175831095Y-126121193D01*
X175748349Y-125958798D01*
X175739221Y-125940883D01*
X180051800Y-125940883D01*
X180051800Y-129140901D01*
X180051801Y-129140918D01*
X180062300Y-129243696D01*
X180062301Y-129243699D01*
X180098608Y-129353265D01*
X180117486Y-129410234D01*
X180209588Y-129559556D01*
X180333644Y-129683612D01*
X180482966Y-129775714D01*
X180649503Y-129830899D01*
X180752291Y-129841400D01*
X182152308Y-129841399D01*
X182255097Y-129830899D01*
X182421634Y-129775714D01*
X182570956Y-129683612D01*
X182695012Y-129559556D01*
X182787114Y-129410234D01*
X182842299Y-129243697D01*
X182852800Y-129140909D01*
X182852799Y-126530678D01*
X183551800Y-126530678D01*
X183551800Y-128551121D01*
X183586285Y-128768852D01*
X183654403Y-128978503D01*
X183654404Y-128978506D01*
X183720387Y-129108001D01*
X183746278Y-129158816D01*
X183754487Y-129174925D01*
X183884052Y-129353258D01*
X183884056Y-129353263D01*
X184039936Y-129509143D01*
X184039941Y-129509147D01*
X184133963Y-129577457D01*
X184218278Y-129638715D01*
X184341519Y-129701510D01*
X184414693Y-129738795D01*
X184414696Y-129738796D01*
X184469785Y-129756695D01*
X184624349Y-129806915D01*
X184842078Y-129841400D01*
X184842079Y-129841400D01*
X185062521Y-129841400D01*
X185062522Y-129841400D01*
X185280251Y-129806915D01*
X185489906Y-129738795D01*
X185686322Y-129638715D01*
X185864665Y-129509142D01*
X186020542Y-129353265D01*
X186150115Y-129174922D01*
X186250195Y-128978506D01*
X186318315Y-128768851D01*
X186352800Y-128551122D01*
X186352800Y-126530678D01*
X187051800Y-126530678D01*
X187051800Y-128551121D01*
X187086285Y-128768852D01*
X187154403Y-128978503D01*
X187154404Y-128978506D01*
X187220387Y-129108001D01*
X187246278Y-129158816D01*
X187254487Y-129174925D01*
X187384052Y-129353258D01*
X187384056Y-129353263D01*
X187539936Y-129509143D01*
X187539941Y-129509147D01*
X187633963Y-129577457D01*
X187718278Y-129638715D01*
X187841519Y-129701510D01*
X187914693Y-129738795D01*
X187914696Y-129738796D01*
X187969785Y-129756695D01*
X188124349Y-129806915D01*
X188342078Y-129841400D01*
X188342079Y-129841400D01*
X188562521Y-129841400D01*
X188562522Y-129841400D01*
X188780251Y-129806915D01*
X188989906Y-129738795D01*
X189186322Y-129638715D01*
X189364665Y-129509142D01*
X189520542Y-129353265D01*
X189650115Y-129174922D01*
X189750195Y-128978506D01*
X189818315Y-128768851D01*
X189852800Y-128551122D01*
X189852800Y-126530678D01*
X190551800Y-126530678D01*
X190551800Y-128551121D01*
X190586285Y-128768852D01*
X190654403Y-128978503D01*
X190654404Y-128978506D01*
X190720387Y-129108001D01*
X190746278Y-129158816D01*
X190754487Y-129174925D01*
X190884052Y-129353258D01*
X190884056Y-129353263D01*
X191039936Y-129509143D01*
X191039941Y-129509147D01*
X191133963Y-129577457D01*
X191218278Y-129638715D01*
X191341519Y-129701510D01*
X191414693Y-129738795D01*
X191414696Y-129738796D01*
X191469785Y-129756695D01*
X191624349Y-129806915D01*
X191842078Y-129841400D01*
X191842079Y-129841400D01*
X192062521Y-129841400D01*
X192062522Y-129841400D01*
X192280251Y-129806915D01*
X192489906Y-129738795D01*
X192686322Y-129638715D01*
X192864665Y-129509142D01*
X193020542Y-129353265D01*
X193150115Y-129174922D01*
X193250195Y-128978506D01*
X193318315Y-128768851D01*
X193352800Y-128551122D01*
X193352800Y-126530678D01*
X193318315Y-126312949D01*
X193256011Y-126121193D01*
X193250196Y-126103296D01*
X193250195Y-126103293D01*
X193215537Y-126035275D01*
X193150115Y-125906878D01*
X193100148Y-125838104D01*
X193020547Y-125728541D01*
X193020543Y-125728536D01*
X192864663Y-125572656D01*
X192864658Y-125572652D01*
X192686325Y-125443087D01*
X192686324Y-125443086D01*
X192686322Y-125443085D01*
X192598208Y-125398188D01*
X192489906Y-125343004D01*
X192489903Y-125343003D01*
X192280252Y-125274885D01*
X192128816Y-125250900D01*
X192062522Y-125240400D01*
X191842078Y-125240400D01*
X191775784Y-125250900D01*
X191624347Y-125274885D01*
X191414696Y-125343003D01*
X191414693Y-125343004D01*
X191218274Y-125443087D01*
X191039941Y-125572652D01*
X191039936Y-125572656D01*
X190884056Y-125728536D01*
X190884052Y-125728541D01*
X190754487Y-125906874D01*
X190654404Y-126103293D01*
X190654403Y-126103296D01*
X190586285Y-126312947D01*
X190551800Y-126530678D01*
X189852800Y-126530678D01*
X189818315Y-126312949D01*
X189756011Y-126121193D01*
X189750196Y-126103296D01*
X189750195Y-126103293D01*
X189715537Y-126035275D01*
X189650115Y-125906878D01*
X189600148Y-125838104D01*
X189520547Y-125728541D01*
X189520543Y-125728536D01*
X189364663Y-125572656D01*
X189364658Y-125572652D01*
X189186325Y-125443087D01*
X189186324Y-125443086D01*
X189186322Y-125443085D01*
X189098208Y-125398188D01*
X188989906Y-125343004D01*
X188989903Y-125343003D01*
X188780252Y-125274885D01*
X188628816Y-125250900D01*
X188562522Y-125240400D01*
X188342078Y-125240400D01*
X188275784Y-125250900D01*
X188124347Y-125274885D01*
X187914696Y-125343003D01*
X187914693Y-125343004D01*
X187718274Y-125443087D01*
X187539941Y-125572652D01*
X187539936Y-125572656D01*
X187384056Y-125728536D01*
X187384052Y-125728541D01*
X187254487Y-125906874D01*
X187154404Y-126103293D01*
X187154403Y-126103296D01*
X187086285Y-126312947D01*
X187051800Y-126530678D01*
X186352800Y-126530678D01*
X186318315Y-126312949D01*
X186256011Y-126121193D01*
X186250196Y-126103296D01*
X186250195Y-126103293D01*
X186215537Y-126035275D01*
X186150115Y-125906878D01*
X186100148Y-125838104D01*
X186020547Y-125728541D01*
X186020543Y-125728536D01*
X185864663Y-125572656D01*
X185864658Y-125572652D01*
X185686325Y-125443087D01*
X185686324Y-125443086D01*
X185686322Y-125443085D01*
X185598208Y-125398188D01*
X185489906Y-125343004D01*
X185489903Y-125343003D01*
X185280252Y-125274885D01*
X185128816Y-125250900D01*
X185062522Y-125240400D01*
X184842078Y-125240400D01*
X184775784Y-125250900D01*
X184624347Y-125274885D01*
X184414696Y-125343003D01*
X184414693Y-125343004D01*
X184218274Y-125443087D01*
X184039941Y-125572652D01*
X184039936Y-125572656D01*
X183884056Y-125728536D01*
X183884052Y-125728541D01*
X183754487Y-125906874D01*
X183654404Y-126103293D01*
X183654403Y-126103296D01*
X183586285Y-126312947D01*
X183551800Y-126530678D01*
X182852799Y-126530678D01*
X182852799Y-125940892D01*
X182849324Y-125906878D01*
X182842299Y-125838103D01*
X182842298Y-125838100D01*
X182811925Y-125746441D01*
X182787114Y-125671566D01*
X182695012Y-125522244D01*
X182570956Y-125398188D01*
X182428150Y-125310105D01*
X182421636Y-125306087D01*
X182421631Y-125306085D01*
X182381494Y-125292785D01*
X182255097Y-125250901D01*
X182255095Y-125250900D01*
X182152310Y-125240400D01*
X180752298Y-125240400D01*
X180752281Y-125240401D01*
X180649503Y-125250900D01*
X180649500Y-125250901D01*
X180482968Y-125306085D01*
X180482963Y-125306087D01*
X180333642Y-125398189D01*
X180209589Y-125522242D01*
X180117487Y-125671563D01*
X180117485Y-125671568D01*
X180111554Y-125689468D01*
X180062301Y-125838103D01*
X180062301Y-125838104D01*
X180062300Y-125838104D01*
X180051800Y-125940883D01*
X175739221Y-125940883D01*
X175731015Y-125924778D01*
X175681048Y-125856004D01*
X175601447Y-125746441D01*
X175601443Y-125746436D01*
X175445563Y-125590556D01*
X175445558Y-125590552D01*
X175267225Y-125460987D01*
X175267224Y-125460986D01*
X175267222Y-125460985D01*
X175179108Y-125416088D01*
X175070806Y-125360904D01*
X175070803Y-125360903D01*
X174861152Y-125292785D01*
X174748135Y-125274885D01*
X174643422Y-125258300D01*
X174422978Y-125258300D01*
X174393026Y-125263044D01*
X174205247Y-125292785D01*
X173995596Y-125360903D01*
X173995593Y-125360904D01*
X173799174Y-125460987D01*
X173620841Y-125590552D01*
X173620836Y-125590556D01*
X173464956Y-125746436D01*
X173464952Y-125746441D01*
X173335387Y-125924774D01*
X173235304Y-126121193D01*
X173235303Y-126121196D01*
X173167185Y-126330847D01*
X173132700Y-126548578D01*
X172433700Y-126548578D01*
X172399215Y-126330849D01*
X172331095Y-126121194D01*
X172331095Y-126121193D01*
X172248349Y-125958798D01*
X172231015Y-125924778D01*
X172181048Y-125856004D01*
X172101447Y-125746441D01*
X172101443Y-125746436D01*
X171945563Y-125590556D01*
X171945558Y-125590552D01*
X171767225Y-125460987D01*
X171767224Y-125460986D01*
X171767222Y-125460985D01*
X171679108Y-125416088D01*
X171570806Y-125360904D01*
X171570803Y-125360903D01*
X171361152Y-125292785D01*
X171248135Y-125274885D01*
X171143422Y-125258300D01*
X170922978Y-125258300D01*
X170893026Y-125263044D01*
X170705247Y-125292785D01*
X170495596Y-125360903D01*
X170495593Y-125360904D01*
X170299174Y-125460987D01*
X170120841Y-125590552D01*
X170120836Y-125590556D01*
X169964956Y-125746436D01*
X169964952Y-125746441D01*
X169835387Y-125924774D01*
X169735304Y-126121193D01*
X169735303Y-126121196D01*
X169667185Y-126330847D01*
X169632700Y-126548578D01*
X168933700Y-126548578D01*
X168899215Y-126330849D01*
X168831095Y-126121194D01*
X168831095Y-126121193D01*
X168748349Y-125958798D01*
X168731015Y-125924778D01*
X168681048Y-125856004D01*
X168601447Y-125746441D01*
X168601443Y-125746436D01*
X168445563Y-125590556D01*
X168445558Y-125590552D01*
X168267225Y-125460987D01*
X168267224Y-125460986D01*
X168267222Y-125460985D01*
X168179108Y-125416088D01*
X168070806Y-125360904D01*
X168070803Y-125360903D01*
X167861152Y-125292785D01*
X167748135Y-125274885D01*
X167643422Y-125258300D01*
X167422978Y-125258300D01*
X167393026Y-125263044D01*
X167205247Y-125292785D01*
X166995596Y-125360903D01*
X166995593Y-125360904D01*
X166799174Y-125460987D01*
X166620841Y-125590552D01*
X166620836Y-125590556D01*
X166464956Y-125746436D01*
X166464952Y-125746441D01*
X166335387Y-125924774D01*
X166235304Y-126121193D01*
X166235303Y-126121196D01*
X166167185Y-126330847D01*
X166132700Y-126548578D01*
X165433699Y-126548578D01*
X165433699Y-125958792D01*
X165431870Y-125940892D01*
X165423199Y-125856003D01*
X165423198Y-125856000D01*
X165417268Y-125838104D01*
X165368014Y-125689466D01*
X165275912Y-125540144D01*
X165151856Y-125416088D01*
X165002534Y-125323986D01*
X164835997Y-125268801D01*
X164835995Y-125268800D01*
X164733210Y-125258300D01*
X163333198Y-125258300D01*
X163333181Y-125258301D01*
X163230403Y-125268800D01*
X163230400Y-125268801D01*
X163063868Y-125323985D01*
X163063863Y-125323987D01*
X162914542Y-125416089D01*
X162790489Y-125540142D01*
X162698387Y-125689463D01*
X162698385Y-125689468D01*
X162685440Y-125728535D01*
X162643201Y-125856003D01*
X162643201Y-125856004D01*
X162643200Y-125856004D01*
X162632700Y-125958783D01*
X158207826Y-125958783D01*
X158164615Y-125873978D01*
X158114648Y-125805204D01*
X158035047Y-125695641D01*
X158035043Y-125695636D01*
X157879163Y-125539756D01*
X157879158Y-125539752D01*
X157700825Y-125410187D01*
X157700824Y-125410186D01*
X157700822Y-125410185D01*
X157604102Y-125360903D01*
X157504406Y-125310104D01*
X157504403Y-125310103D01*
X157294752Y-125241985D01*
X157143316Y-125218000D01*
X157077022Y-125207500D01*
X156856578Y-125207500D01*
X156790284Y-125218000D01*
X156638847Y-125241985D01*
X156429196Y-125310103D01*
X156429193Y-125310104D01*
X156232774Y-125410187D01*
X156054441Y-125539752D01*
X156054436Y-125539756D01*
X155898556Y-125695636D01*
X155898552Y-125695641D01*
X155768987Y-125873974D01*
X155668904Y-126070393D01*
X155668903Y-126070396D01*
X155600785Y-126280047D01*
X155566300Y-126497778D01*
X154867299Y-126497778D01*
X154867299Y-125907992D01*
X154863824Y-125873978D01*
X154856799Y-125805203D01*
X154856798Y-125805200D01*
X154837327Y-125746441D01*
X154801614Y-125638666D01*
X154709512Y-125489344D01*
X154585456Y-125365288D01*
X154436134Y-125273186D01*
X154269597Y-125218001D01*
X154269595Y-125218000D01*
X154166810Y-125207500D01*
X152766798Y-125207500D01*
X152766781Y-125207501D01*
X152664003Y-125218000D01*
X152664000Y-125218001D01*
X152497468Y-125273185D01*
X152497463Y-125273187D01*
X152348142Y-125365289D01*
X152224089Y-125489342D01*
X152131987Y-125638663D01*
X152131985Y-125638668D01*
X152115152Y-125689468D01*
X152076801Y-125805203D01*
X152076801Y-125805204D01*
X152076800Y-125805204D01*
X152066300Y-125907983D01*
X128136516Y-125907983D01*
X128136086Y-125907139D01*
X128006557Y-125728858D01*
X127850741Y-125573042D01*
X127672460Y-125443513D01*
X127476110Y-125343467D01*
X127266536Y-125275373D01*
X127188700Y-125263044D01*
X127188700Y-126992417D01*
X127170291Y-126981789D01*
X127017691Y-126940900D01*
X126859709Y-126940900D01*
X126707109Y-126981789D01*
X126688700Y-126992417D01*
X126688700Y-125263044D01*
X126610864Y-125275373D01*
X126610861Y-125275373D01*
X126401289Y-125343467D01*
X126204939Y-125443513D01*
X126026658Y-125573042D01*
X125870842Y-125728858D01*
X125741313Y-125907139D01*
X125641267Y-126103489D01*
X125573173Y-126313064D01*
X125538700Y-126530718D01*
X124839199Y-126530718D01*
X124839199Y-125940892D01*
X124835724Y-125906878D01*
X124828699Y-125838103D01*
X124828698Y-125838100D01*
X124798325Y-125746441D01*
X124773514Y-125671566D01*
X124681412Y-125522244D01*
X124557356Y-125398188D01*
X124414550Y-125310105D01*
X124408036Y-125306087D01*
X124408031Y-125306085D01*
X124367894Y-125292785D01*
X124241497Y-125250901D01*
X124241495Y-125250900D01*
X124138710Y-125240400D01*
X122738698Y-125240400D01*
X122738681Y-125240401D01*
X122635903Y-125250900D01*
X122635900Y-125250901D01*
X122469368Y-125306085D01*
X122469363Y-125306087D01*
X122320042Y-125398189D01*
X122195989Y-125522242D01*
X122103887Y-125671563D01*
X122103885Y-125671568D01*
X122097954Y-125689468D01*
X122048701Y-125838103D01*
X122048701Y-125838104D01*
X122048700Y-125838104D01*
X122038200Y-125940883D01*
X116824880Y-125940883D01*
X116807686Y-125907139D01*
X116678157Y-125728858D01*
X116522341Y-125573042D01*
X116344060Y-125443513D01*
X116147710Y-125343467D01*
X115938136Y-125275373D01*
X115860300Y-125263044D01*
X115860300Y-126992417D01*
X115841891Y-126981789D01*
X115689291Y-126940900D01*
X115531309Y-126940900D01*
X115378709Y-126981789D01*
X115360300Y-126992417D01*
X115360300Y-125263044D01*
X115282464Y-125275373D01*
X115282461Y-125275373D01*
X115072889Y-125343467D01*
X114876539Y-125443513D01*
X114698258Y-125573042D01*
X114542442Y-125728858D01*
X114412913Y-125907139D01*
X114312867Y-126103489D01*
X114244773Y-126313064D01*
X114210300Y-126530718D01*
X113510799Y-126530718D01*
X113510799Y-125940892D01*
X113507324Y-125906878D01*
X113500299Y-125838103D01*
X113500298Y-125838100D01*
X113469925Y-125746441D01*
X113445114Y-125671566D01*
X113353012Y-125522244D01*
X113228956Y-125398188D01*
X113086150Y-125310105D01*
X113079636Y-125306087D01*
X113079631Y-125306085D01*
X113039494Y-125292785D01*
X112913097Y-125250901D01*
X112913095Y-125250900D01*
X112810310Y-125240400D01*
X111410298Y-125240400D01*
X111410281Y-125240401D01*
X111307503Y-125250900D01*
X111307500Y-125250901D01*
X111140968Y-125306085D01*
X111140963Y-125306087D01*
X110991642Y-125398189D01*
X110867589Y-125522242D01*
X110775487Y-125671563D01*
X110775485Y-125671568D01*
X110769554Y-125689468D01*
X110720301Y-125838103D01*
X110720301Y-125838104D01*
X110720300Y-125838104D01*
X110709800Y-125940883D01*
X102405300Y-125940883D01*
X102405300Y-118159435D01*
X111211800Y-118159435D01*
X111211800Y-119955170D01*
X111211801Y-119955176D01*
X111218208Y-120014783D01*
X111268502Y-120149628D01*
X111268506Y-120149635D01*
X111354752Y-120264844D01*
X111354755Y-120264847D01*
X111469964Y-120351093D01*
X111469971Y-120351097D01*
X111604817Y-120401391D01*
X111604816Y-120401391D01*
X111611744Y-120402135D01*
X111664427Y-120407800D01*
X113460172Y-120407799D01*
X113519783Y-120401391D01*
X113654631Y-120351096D01*
X113769846Y-120264846D01*
X113856096Y-120149631D01*
X113905302Y-120017701D01*
X113947172Y-119961768D01*
X114012637Y-119937350D01*
X114080910Y-119952201D01*
X114109165Y-119973353D01*
X114231217Y-120095405D01*
X114424721Y-120230900D01*
X114638807Y-120330729D01*
X114638816Y-120330733D01*
X114852300Y-120387934D01*
X114852300Y-119490312D01*
X114909307Y-119523225D01*
X115036474Y-119557300D01*
X115168126Y-119557300D01*
X115295293Y-119523225D01*
X115352300Y-119490312D01*
X115352300Y-120387933D01*
X115565783Y-120330733D01*
X115565792Y-120330729D01*
X115779878Y-120230900D01*
X115973382Y-120095405D01*
X116140405Y-119928382D01*
X116275900Y-119734878D01*
X116375729Y-119520792D01*
X116375732Y-119520786D01*
X116432936Y-119307300D01*
X115535312Y-119307300D01*
X115568225Y-119250293D01*
X115602300Y-119123126D01*
X115602300Y-118991474D01*
X115568225Y-118864307D01*
X115535312Y-118807300D01*
X116432936Y-118807300D01*
X116432935Y-118807299D01*
X116375732Y-118593813D01*
X116375729Y-118593807D01*
X116275900Y-118379722D01*
X116275899Y-118379720D01*
X116140413Y-118186226D01*
X116140408Y-118186220D01*
X116113623Y-118159435D01*
X122687600Y-118159435D01*
X122687600Y-119955170D01*
X122687601Y-119955176D01*
X122694008Y-120014783D01*
X122744302Y-120149628D01*
X122744306Y-120149635D01*
X122830552Y-120264844D01*
X122830555Y-120264847D01*
X122945764Y-120351093D01*
X122945771Y-120351097D01*
X123080617Y-120401391D01*
X123080616Y-120401391D01*
X123087544Y-120402135D01*
X123140227Y-120407800D01*
X124935972Y-120407799D01*
X124995583Y-120401391D01*
X125130431Y-120351096D01*
X125245646Y-120264846D01*
X125331896Y-120149631D01*
X125381102Y-120017701D01*
X125422972Y-119961768D01*
X125488437Y-119937350D01*
X125556710Y-119952201D01*
X125584965Y-119973353D01*
X125707017Y-120095405D01*
X125900521Y-120230900D01*
X126114607Y-120330729D01*
X126114616Y-120330733D01*
X126328100Y-120387934D01*
X126328100Y-119490312D01*
X126385107Y-119523225D01*
X126512274Y-119557300D01*
X126643926Y-119557300D01*
X126771093Y-119523225D01*
X126828100Y-119490312D01*
X126828100Y-120387933D01*
X127041583Y-120330733D01*
X127041592Y-120330729D01*
X127255678Y-120230900D01*
X127449182Y-120095405D01*
X127574676Y-119969911D01*
X138001900Y-119969911D01*
X138001900Y-120212488D01*
X138029191Y-120419793D01*
X138033562Y-120452989D01*
X138038145Y-120470091D01*
X138096347Y-120687304D01*
X138189173Y-120911405D01*
X138189176Y-120911412D01*
X138310464Y-121121489D01*
X138310466Y-121121492D01*
X138310467Y-121121493D01*
X138458133Y-121313936D01*
X138458139Y-121313943D01*
X138629656Y-121485460D01*
X138629662Y-121485465D01*
X138822111Y-121633136D01*
X139032188Y-121754424D01*
X139256300Y-121847254D01*
X139490611Y-121910038D01*
X139670986Y-121933784D01*
X139731111Y-121941700D01*
X139731112Y-121941700D01*
X139973689Y-121941700D01*
X140021788Y-121935367D01*
X140214189Y-121910038D01*
X140448500Y-121847254D01*
X140672612Y-121754424D01*
X140882689Y-121633136D01*
X141075138Y-121485465D01*
X141246665Y-121313938D01*
X141394336Y-121121489D01*
X141515624Y-120911412D01*
X141608454Y-120687300D01*
X141671238Y-120452989D01*
X141702900Y-120212488D01*
X141702900Y-119969912D01*
X141700959Y-119955172D01*
X141681035Y-119803830D01*
X141671238Y-119729411D01*
X141608454Y-119495100D01*
X141515624Y-119270988D01*
X141394336Y-119060911D01*
X141246665Y-118868462D01*
X141246660Y-118868456D01*
X141075143Y-118696939D01*
X141075136Y-118696933D01*
X140882693Y-118549267D01*
X140882692Y-118549266D01*
X140882689Y-118549264D01*
X140672612Y-118427976D01*
X140672605Y-118427973D01*
X140448504Y-118335147D01*
X140214185Y-118272361D01*
X139973689Y-118240700D01*
X139973688Y-118240700D01*
X139731112Y-118240700D01*
X139731111Y-118240700D01*
X139490614Y-118272361D01*
X139256295Y-118335147D01*
X139032194Y-118427973D01*
X139032185Y-118427977D01*
X138822106Y-118549267D01*
X138629663Y-118696933D01*
X138629656Y-118696939D01*
X138458139Y-118868456D01*
X138458133Y-118868463D01*
X138310467Y-119060906D01*
X138189180Y-119270981D01*
X138189173Y-119270994D01*
X138096347Y-119495095D01*
X138033561Y-119729414D01*
X138001900Y-119969911D01*
X127574676Y-119969911D01*
X127616205Y-119928382D01*
X127751700Y-119734878D01*
X127851529Y-119520792D01*
X127851532Y-119520786D01*
X127908736Y-119307300D01*
X127011112Y-119307300D01*
X127044025Y-119250293D01*
X127078100Y-119123126D01*
X127078100Y-118991474D01*
X127044025Y-118864307D01*
X127011112Y-118807300D01*
X127908736Y-118807300D01*
X127908735Y-118807299D01*
X127851532Y-118593813D01*
X127851529Y-118593807D01*
X127751700Y-118379722D01*
X127751699Y-118379720D01*
X127645558Y-118228135D01*
X152517500Y-118228135D01*
X152517500Y-120023870D01*
X152517501Y-120023876D01*
X152523908Y-120083483D01*
X152574202Y-120218328D01*
X152574206Y-120218335D01*
X152660452Y-120333544D01*
X152660455Y-120333547D01*
X152775664Y-120419793D01*
X152775671Y-120419797D01*
X152910517Y-120470091D01*
X152910516Y-120470091D01*
X152917444Y-120470835D01*
X152970127Y-120476500D01*
X154765872Y-120476499D01*
X154825483Y-120470091D01*
X154960331Y-120419796D01*
X155075546Y-120333546D01*
X155161796Y-120218331D01*
X155210810Y-120086916D01*
X155252681Y-120030984D01*
X155318145Y-120006566D01*
X155386418Y-120021417D01*
X155414673Y-120042569D01*
X155536599Y-120164495D01*
X155631435Y-120230900D01*
X155730165Y-120300032D01*
X155730167Y-120300033D01*
X155730170Y-120300035D01*
X155944337Y-120399903D01*
X155944343Y-120399904D01*
X155944344Y-120399905D01*
X155973809Y-120407800D01*
X156172592Y-120461063D01*
X156349034Y-120476500D01*
X156407999Y-120481659D01*
X156408000Y-120481659D01*
X156408001Y-120481659D01*
X156466966Y-120476500D01*
X156643408Y-120461063D01*
X156871663Y-120399903D01*
X157085830Y-120300035D01*
X157279401Y-120164495D01*
X157446495Y-119997401D01*
X157582035Y-119803830D01*
X157681903Y-119589663D01*
X157743063Y-119361408D01*
X157763659Y-119126000D01*
X157743063Y-118890592D01*
X157696626Y-118717285D01*
X157681905Y-118662344D01*
X157681904Y-118662343D01*
X157681903Y-118662337D01*
X157582035Y-118448171D01*
X157576425Y-118440158D01*
X157446494Y-118254597D01*
X157420032Y-118228135D01*
X163998300Y-118228135D01*
X163998300Y-120023870D01*
X163998301Y-120023876D01*
X164004708Y-120083483D01*
X164055002Y-120218328D01*
X164055006Y-120218335D01*
X164141252Y-120333544D01*
X164141255Y-120333547D01*
X164256464Y-120419793D01*
X164256471Y-120419797D01*
X164391317Y-120470091D01*
X164391316Y-120470091D01*
X164398244Y-120470835D01*
X164450927Y-120476500D01*
X166246672Y-120476499D01*
X166306283Y-120470091D01*
X166441131Y-120419796D01*
X166556346Y-120333546D01*
X166642596Y-120218331D01*
X166691610Y-120086916D01*
X166733481Y-120030984D01*
X166798945Y-120006566D01*
X166867218Y-120021417D01*
X166895473Y-120042569D01*
X167017399Y-120164495D01*
X167112235Y-120230900D01*
X167210965Y-120300032D01*
X167210967Y-120300033D01*
X167210970Y-120300035D01*
X167425137Y-120399903D01*
X167425143Y-120399904D01*
X167425144Y-120399905D01*
X167454609Y-120407800D01*
X167653392Y-120461063D01*
X167829834Y-120476500D01*
X167888799Y-120481659D01*
X167888800Y-120481659D01*
X167888801Y-120481659D01*
X167947766Y-120476500D01*
X168124208Y-120461063D01*
X168352463Y-120399903D01*
X168566630Y-120300035D01*
X168760201Y-120164495D01*
X168927295Y-119997401D01*
X169057225Y-119811842D01*
X169111802Y-119768217D01*
X169181300Y-119761023D01*
X169243655Y-119792546D01*
X169260375Y-119811842D01*
X169390300Y-119997395D01*
X169390305Y-119997401D01*
X169557399Y-120164495D01*
X169652235Y-120230900D01*
X169750965Y-120300032D01*
X169750967Y-120300033D01*
X169750970Y-120300035D01*
X169965137Y-120399903D01*
X169965143Y-120399904D01*
X169965144Y-120399905D01*
X169994609Y-120407800D01*
X170193392Y-120461063D01*
X170369834Y-120476500D01*
X170428799Y-120481659D01*
X170428800Y-120481659D01*
X170428801Y-120481659D01*
X170487766Y-120476500D01*
X170664208Y-120461063D01*
X170892463Y-120399903D01*
X171106630Y-120300035D01*
X171300201Y-120164495D01*
X171467295Y-119997401D01*
X171597225Y-119811842D01*
X171651802Y-119768217D01*
X171721300Y-119761023D01*
X171783655Y-119792546D01*
X171800375Y-119811842D01*
X171930300Y-119997395D01*
X171930305Y-119997401D01*
X172097399Y-120164495D01*
X172192235Y-120230900D01*
X172290965Y-120300032D01*
X172290967Y-120300033D01*
X172290970Y-120300035D01*
X172505137Y-120399903D01*
X172505143Y-120399904D01*
X172505144Y-120399905D01*
X172534609Y-120407800D01*
X172733392Y-120461063D01*
X172909834Y-120476500D01*
X172968799Y-120481659D01*
X172968800Y-120481659D01*
X172968801Y-120481659D01*
X173027766Y-120476500D01*
X173204208Y-120461063D01*
X173432463Y-120399903D01*
X173646630Y-120300035D01*
X173840201Y-120164495D01*
X174007295Y-119997401D01*
X174142835Y-119803830D01*
X174242703Y-119589663D01*
X174303863Y-119361408D01*
X174324459Y-119126000D01*
X174303863Y-118890592D01*
X174257426Y-118717285D01*
X174242705Y-118662344D01*
X174242704Y-118662343D01*
X174242703Y-118662337D01*
X174142835Y-118448171D01*
X174137225Y-118440158D01*
X174007294Y-118254597D01*
X173980832Y-118228135D01*
X181727500Y-118228135D01*
X181727500Y-120023870D01*
X181727501Y-120023876D01*
X181733908Y-120083483D01*
X181784202Y-120218328D01*
X181784206Y-120218335D01*
X181870452Y-120333544D01*
X181870455Y-120333547D01*
X181985664Y-120419793D01*
X181985671Y-120419797D01*
X182120517Y-120470091D01*
X182120516Y-120470091D01*
X182127444Y-120470835D01*
X182180127Y-120476500D01*
X183975872Y-120476499D01*
X184035483Y-120470091D01*
X184170331Y-120419796D01*
X184285546Y-120333546D01*
X184371796Y-120218331D01*
X184420810Y-120086916D01*
X184462681Y-120030984D01*
X184528145Y-120006566D01*
X184596418Y-120021417D01*
X184624673Y-120042569D01*
X184746599Y-120164495D01*
X184841435Y-120230900D01*
X184940165Y-120300032D01*
X184940167Y-120300033D01*
X184940170Y-120300035D01*
X185154337Y-120399903D01*
X185154343Y-120399904D01*
X185154344Y-120399905D01*
X185183809Y-120407800D01*
X185382592Y-120461063D01*
X185559034Y-120476500D01*
X185617999Y-120481659D01*
X185618000Y-120481659D01*
X185618001Y-120481659D01*
X185676966Y-120476500D01*
X185853408Y-120461063D01*
X186081663Y-120399903D01*
X186295830Y-120300035D01*
X186489401Y-120164495D01*
X186656495Y-119997401D01*
X186786425Y-119811842D01*
X186841002Y-119768217D01*
X186910500Y-119761023D01*
X186972855Y-119792546D01*
X186989575Y-119811842D01*
X187119500Y-119997395D01*
X187119505Y-119997401D01*
X187286599Y-120164495D01*
X187381435Y-120230900D01*
X187480165Y-120300032D01*
X187480167Y-120300033D01*
X187480170Y-120300035D01*
X187694337Y-120399903D01*
X187694343Y-120399904D01*
X187694344Y-120399905D01*
X187723809Y-120407800D01*
X187922592Y-120461063D01*
X188099034Y-120476500D01*
X188157999Y-120481659D01*
X188158000Y-120481659D01*
X188158001Y-120481659D01*
X188216966Y-120476500D01*
X188393408Y-120461063D01*
X188621663Y-120399903D01*
X188835830Y-120300035D01*
X189029401Y-120164495D01*
X189196495Y-119997401D01*
X189326425Y-119811842D01*
X189381002Y-119768217D01*
X189450500Y-119761023D01*
X189512855Y-119792546D01*
X189529575Y-119811842D01*
X189659500Y-119997395D01*
X189659505Y-119997401D01*
X189826599Y-120164495D01*
X189921435Y-120230900D01*
X190020165Y-120300032D01*
X190020167Y-120300033D01*
X190020170Y-120300035D01*
X190234337Y-120399903D01*
X190234343Y-120399904D01*
X190234344Y-120399905D01*
X190263809Y-120407800D01*
X190462592Y-120461063D01*
X190639034Y-120476500D01*
X190697999Y-120481659D01*
X190698000Y-120481659D01*
X190698001Y-120481659D01*
X190756966Y-120476500D01*
X190933408Y-120461063D01*
X191161663Y-120399903D01*
X191375830Y-120300035D01*
X191569401Y-120164495D01*
X191736495Y-119997401D01*
X191872035Y-119803830D01*
X191971903Y-119589663D01*
X192033063Y-119361408D01*
X192053659Y-119126000D01*
X192033063Y-118890592D01*
X191986626Y-118717285D01*
X191971905Y-118662344D01*
X191971904Y-118662343D01*
X191971903Y-118662337D01*
X191872035Y-118448171D01*
X191866425Y-118440158D01*
X191736494Y-118254597D01*
X191569402Y-118087506D01*
X191569395Y-118087501D01*
X191375834Y-117951967D01*
X191375830Y-117951965D01*
X191375828Y-117951964D01*
X191161663Y-117852097D01*
X191161659Y-117852096D01*
X191161655Y-117852094D01*
X190933413Y-117790938D01*
X190933403Y-117790936D01*
X190698001Y-117770341D01*
X190697999Y-117770341D01*
X190462596Y-117790936D01*
X190462586Y-117790938D01*
X190234344Y-117852094D01*
X190234335Y-117852098D01*
X190020171Y-117951964D01*
X190020169Y-117951965D01*
X189826597Y-118087505D01*
X189659505Y-118254597D01*
X189529575Y-118440158D01*
X189474998Y-118483783D01*
X189405500Y-118490977D01*
X189343145Y-118459454D01*
X189326425Y-118440158D01*
X189196494Y-118254597D01*
X189029402Y-118087506D01*
X189029395Y-118087501D01*
X188835834Y-117951967D01*
X188835830Y-117951965D01*
X188835828Y-117951964D01*
X188621663Y-117852097D01*
X188621659Y-117852096D01*
X188621655Y-117852094D01*
X188393413Y-117790938D01*
X188393403Y-117790936D01*
X188158001Y-117770341D01*
X188157999Y-117770341D01*
X187922596Y-117790936D01*
X187922586Y-117790938D01*
X187694344Y-117852094D01*
X187694335Y-117852098D01*
X187480171Y-117951964D01*
X187480169Y-117951965D01*
X187286597Y-118087505D01*
X187119505Y-118254597D01*
X186989575Y-118440158D01*
X186934998Y-118483783D01*
X186865500Y-118490977D01*
X186803145Y-118459454D01*
X186786425Y-118440158D01*
X186656494Y-118254597D01*
X186489402Y-118087506D01*
X186489395Y-118087501D01*
X186295834Y-117951967D01*
X186295830Y-117951965D01*
X186295828Y-117951964D01*
X186081663Y-117852097D01*
X186081659Y-117852096D01*
X186081655Y-117852094D01*
X185853413Y-117790938D01*
X185853403Y-117790936D01*
X185618001Y-117770341D01*
X185617999Y-117770341D01*
X185382596Y-117790936D01*
X185382586Y-117790938D01*
X185154344Y-117852094D01*
X185154335Y-117852098D01*
X184940171Y-117951964D01*
X184940169Y-117951965D01*
X184746600Y-118087503D01*
X184624673Y-118209430D01*
X184563350Y-118242914D01*
X184493658Y-118237930D01*
X184437725Y-118196058D01*
X184420810Y-118165081D01*
X184371797Y-118033671D01*
X184371793Y-118033664D01*
X184285547Y-117918455D01*
X184285544Y-117918452D01*
X184170335Y-117832206D01*
X184170328Y-117832202D01*
X184035482Y-117781908D01*
X184035483Y-117781908D01*
X183975883Y-117775501D01*
X183975881Y-117775500D01*
X183975873Y-117775500D01*
X183975864Y-117775500D01*
X182180129Y-117775500D01*
X182180123Y-117775501D01*
X182120516Y-117781908D01*
X181985671Y-117832202D01*
X181985664Y-117832206D01*
X181870455Y-117918452D01*
X181870452Y-117918455D01*
X181784206Y-118033664D01*
X181784202Y-118033671D01*
X181733908Y-118168517D01*
X181727501Y-118228116D01*
X181727500Y-118228135D01*
X173980832Y-118228135D01*
X173840202Y-118087506D01*
X173840195Y-118087501D01*
X173646634Y-117951967D01*
X173646630Y-117951965D01*
X173646628Y-117951964D01*
X173432463Y-117852097D01*
X173432459Y-117852096D01*
X173432455Y-117852094D01*
X173204213Y-117790938D01*
X173204203Y-117790936D01*
X172968801Y-117770341D01*
X172968799Y-117770341D01*
X172733396Y-117790936D01*
X172733386Y-117790938D01*
X172505144Y-117852094D01*
X172505135Y-117852098D01*
X172290971Y-117951964D01*
X172290969Y-117951965D01*
X172097397Y-118087505D01*
X171930305Y-118254597D01*
X171800375Y-118440158D01*
X171745798Y-118483783D01*
X171676300Y-118490977D01*
X171613945Y-118459454D01*
X171597225Y-118440158D01*
X171467294Y-118254597D01*
X171300202Y-118087506D01*
X171300195Y-118087501D01*
X171106634Y-117951967D01*
X171106630Y-117951965D01*
X171106628Y-117951964D01*
X170892463Y-117852097D01*
X170892459Y-117852096D01*
X170892455Y-117852094D01*
X170664213Y-117790938D01*
X170664203Y-117790936D01*
X170428801Y-117770341D01*
X170428799Y-117770341D01*
X170193396Y-117790936D01*
X170193386Y-117790938D01*
X169965144Y-117852094D01*
X169965135Y-117852098D01*
X169750971Y-117951964D01*
X169750969Y-117951965D01*
X169557397Y-118087505D01*
X169390305Y-118254597D01*
X169260375Y-118440158D01*
X169205798Y-118483783D01*
X169136300Y-118490977D01*
X169073945Y-118459454D01*
X169057225Y-118440158D01*
X168927294Y-118254597D01*
X168760202Y-118087506D01*
X168760195Y-118087501D01*
X168566634Y-117951967D01*
X168566630Y-117951965D01*
X168566628Y-117951964D01*
X168352463Y-117852097D01*
X168352459Y-117852096D01*
X168352455Y-117852094D01*
X168124213Y-117790938D01*
X168124203Y-117790936D01*
X167888801Y-117770341D01*
X167888799Y-117770341D01*
X167653396Y-117790936D01*
X167653386Y-117790938D01*
X167425144Y-117852094D01*
X167425135Y-117852098D01*
X167210971Y-117951964D01*
X167210969Y-117951965D01*
X167017400Y-118087503D01*
X166895473Y-118209430D01*
X166834150Y-118242914D01*
X166764458Y-118237930D01*
X166708525Y-118196058D01*
X166691610Y-118165081D01*
X166642597Y-118033671D01*
X166642593Y-118033664D01*
X166556347Y-117918455D01*
X166556344Y-117918452D01*
X166441135Y-117832206D01*
X166441128Y-117832202D01*
X166306282Y-117781908D01*
X166306283Y-117781908D01*
X166246683Y-117775501D01*
X166246681Y-117775500D01*
X166246673Y-117775500D01*
X166246664Y-117775500D01*
X164450929Y-117775500D01*
X164450923Y-117775501D01*
X164391316Y-117781908D01*
X164256471Y-117832202D01*
X164256464Y-117832206D01*
X164141255Y-117918452D01*
X164141252Y-117918455D01*
X164055006Y-118033664D01*
X164055002Y-118033671D01*
X164004708Y-118168517D01*
X163998301Y-118228116D01*
X163998300Y-118228135D01*
X157420032Y-118228135D01*
X157279402Y-118087506D01*
X157279395Y-118087501D01*
X157085834Y-117951967D01*
X157085830Y-117951965D01*
X157085828Y-117951964D01*
X156871663Y-117852097D01*
X156871659Y-117852096D01*
X156871655Y-117852094D01*
X156643413Y-117790938D01*
X156643403Y-117790936D01*
X156408001Y-117770341D01*
X156407999Y-117770341D01*
X156172596Y-117790936D01*
X156172586Y-117790938D01*
X155944344Y-117852094D01*
X155944335Y-117852098D01*
X155730171Y-117951964D01*
X155730169Y-117951965D01*
X155536600Y-118087503D01*
X155414673Y-118209430D01*
X155353350Y-118242914D01*
X155283658Y-118237930D01*
X155227725Y-118196058D01*
X155210810Y-118165081D01*
X155161797Y-118033671D01*
X155161793Y-118033664D01*
X155075547Y-117918455D01*
X155075544Y-117918452D01*
X154960335Y-117832206D01*
X154960328Y-117832202D01*
X154825482Y-117781908D01*
X154825483Y-117781908D01*
X154765883Y-117775501D01*
X154765881Y-117775500D01*
X154765873Y-117775500D01*
X154765864Y-117775500D01*
X152970129Y-117775500D01*
X152970123Y-117775501D01*
X152910516Y-117781908D01*
X152775671Y-117832202D01*
X152775664Y-117832206D01*
X152660455Y-117918452D01*
X152660452Y-117918455D01*
X152574206Y-118033664D01*
X152574202Y-118033671D01*
X152523908Y-118168517D01*
X152517501Y-118228116D01*
X152517500Y-118228135D01*
X127645558Y-118228135D01*
X127616213Y-118186226D01*
X127616208Y-118186220D01*
X127449182Y-118019194D01*
X127255678Y-117883699D01*
X127041592Y-117783870D01*
X127041586Y-117783867D01*
X126828100Y-117726664D01*
X126828100Y-118624288D01*
X126771093Y-118591375D01*
X126643926Y-118557300D01*
X126512274Y-118557300D01*
X126385107Y-118591375D01*
X126328100Y-118624288D01*
X126328100Y-117726664D01*
X126328099Y-117726664D01*
X126114613Y-117783867D01*
X126114607Y-117783870D01*
X125900522Y-117883699D01*
X125900520Y-117883700D01*
X125707026Y-118019186D01*
X125584965Y-118141247D01*
X125523642Y-118174731D01*
X125453950Y-118169747D01*
X125398017Y-118127875D01*
X125381102Y-118096898D01*
X125331897Y-117964971D01*
X125331893Y-117964964D01*
X125245647Y-117849755D01*
X125245644Y-117849752D01*
X125130435Y-117763506D01*
X125130428Y-117763502D01*
X124995582Y-117713208D01*
X124995583Y-117713208D01*
X124935983Y-117706801D01*
X124935981Y-117706800D01*
X124935973Y-117706800D01*
X124935964Y-117706800D01*
X123140229Y-117706800D01*
X123140223Y-117706801D01*
X123080616Y-117713208D01*
X122945771Y-117763502D01*
X122945764Y-117763506D01*
X122830555Y-117849752D01*
X122830552Y-117849755D01*
X122744306Y-117964964D01*
X122744302Y-117964971D01*
X122694008Y-118099817D01*
X122687601Y-118159416D01*
X122687600Y-118159435D01*
X116113623Y-118159435D01*
X115973382Y-118019194D01*
X115779878Y-117883699D01*
X115565792Y-117783870D01*
X115565786Y-117783867D01*
X115352300Y-117726664D01*
X115352300Y-118624288D01*
X115295293Y-118591375D01*
X115168126Y-118557300D01*
X115036474Y-118557300D01*
X114909307Y-118591375D01*
X114852300Y-118624288D01*
X114852300Y-117726664D01*
X114852299Y-117726664D01*
X114638813Y-117783867D01*
X114638807Y-117783870D01*
X114424722Y-117883699D01*
X114424720Y-117883700D01*
X114231226Y-118019186D01*
X114109165Y-118141247D01*
X114047842Y-118174731D01*
X113978150Y-118169747D01*
X113922217Y-118127875D01*
X113905302Y-118096898D01*
X113856097Y-117964971D01*
X113856093Y-117964964D01*
X113769847Y-117849755D01*
X113769844Y-117849752D01*
X113654635Y-117763506D01*
X113654628Y-117763502D01*
X113519782Y-117713208D01*
X113519783Y-117713208D01*
X113460183Y-117706801D01*
X113460181Y-117706800D01*
X113460173Y-117706800D01*
X113460164Y-117706800D01*
X111664429Y-117706800D01*
X111664423Y-117706801D01*
X111604816Y-117713208D01*
X111469971Y-117763502D01*
X111469964Y-117763506D01*
X111354755Y-117849752D01*
X111354752Y-117849755D01*
X111268506Y-117964964D01*
X111268502Y-117964971D01*
X111218208Y-118099817D01*
X111211801Y-118159416D01*
X111211800Y-118159435D01*
X102405300Y-118159435D01*
X102405300Y-117261300D01*
X102424985Y-117194261D01*
X102477789Y-117148506D01*
X102529300Y-117137300D01*
X201559500Y-117137300D01*
X201626539Y-117156985D01*
G37*
%TD.AperFunction*%
%TD*%
M02*
