%TF.GenerationSoftware,KiCad,Pcbnew,8.0.3*%
%TF.CreationDate,2024-07-16T19:28:07+01:00*%
%TF.ProjectId,FCPC Breakout PCB,46435043-2042-4726-9561-6b6f75742050,rev?*%
%TF.SameCoordinates,Original*%
%TF.FileFunction,Legend,Top*%
%TF.FilePolarity,Positive*%
%FSLAX46Y46*%
G04 Gerber Fmt 4.6, Leading zero omitted, Abs format (unit mm)*
G04 Created by KiCad (PCBNEW 8.0.3) date 2024-07-16 19:28:07*
%MOMM*%
%LPD*%
G01*
G04 APERTURE LIST*
G04 Aperture macros list*
%AMRoundRect*
0 Rectangle with rounded corners*
0 $1 Rounding radius*
0 $2 $3 $4 $5 $6 $7 $8 $9 X,Y pos of 4 corners*
0 Add a 4 corners polygon primitive as box body*
4,1,4,$2,$3,$4,$5,$6,$7,$8,$9,$2,$3,0*
0 Add four circle primitives for the rounded corners*
1,1,$1+$1,$2,$3*
1,1,$1+$1,$4,$5*
1,1,$1+$1,$6,$7*
1,1,$1+$1,$8,$9*
0 Add four rect primitives between the rounded corners*
20,1,$1+$1,$2,$3,$4,$5,0*
20,1,$1+$1,$4,$5,$6,$7,0*
20,1,$1+$1,$6,$7,$8,$9,0*
20,1,$1+$1,$8,$9,$2,$3,0*%
G04 Aperture macros list end*
%ADD10C,0.150000*%
%ADD11C,0.120000*%
%ADD12C,3.200000*%
%ADD13O,1.700000X1.700000*%
%ADD14R,1.700000X1.700000*%
%ADD15RoundRect,0.250000X-0.650000X-1.550000X0.650000X-1.550000X0.650000X1.550000X-0.650000X1.550000X0*%
%ADD16O,1.800000X3.600000*%
%ADD17RoundRect,0.250000X-0.475000X0.337500X-0.475000X-0.337500X0.475000X-0.337500X0.475000X0.337500X0*%
G04 APERTURE END LIST*
D10*
X113526966Y-121545719D02*
X113526966Y-122260004D01*
X113526966Y-122260004D02*
X113479347Y-122402861D01*
X113479347Y-122402861D02*
X113384109Y-122498100D01*
X113384109Y-122498100D02*
X113241252Y-122545719D01*
X113241252Y-122545719D02*
X113146014Y-122545719D01*
X114479347Y-121545719D02*
X114003157Y-121545719D01*
X114003157Y-121545719D02*
X113955538Y-122021909D01*
X113955538Y-122021909D02*
X114003157Y-121974290D01*
X114003157Y-121974290D02*
X114098395Y-121926671D01*
X114098395Y-121926671D02*
X114336490Y-121926671D01*
X114336490Y-121926671D02*
X114431728Y-121974290D01*
X114431728Y-121974290D02*
X114479347Y-122021909D01*
X114479347Y-122021909D02*
X114526966Y-122117147D01*
X114526966Y-122117147D02*
X114526966Y-122355242D01*
X114526966Y-122355242D02*
X114479347Y-122450480D01*
X114479347Y-122450480D02*
X114431728Y-122498100D01*
X114431728Y-122498100D02*
X114336490Y-122545719D01*
X114336490Y-122545719D02*
X114098395Y-122545719D01*
X114098395Y-122545719D02*
X114003157Y-122498100D01*
X114003157Y-122498100D02*
X113955538Y-122450480D01*
X124855366Y-121545719D02*
X124855366Y-122260004D01*
X124855366Y-122260004D02*
X124807747Y-122402861D01*
X124807747Y-122402861D02*
X124712509Y-122498100D01*
X124712509Y-122498100D02*
X124569652Y-122545719D01*
X124569652Y-122545719D02*
X124474414Y-122545719D01*
X125760128Y-121879052D02*
X125760128Y-122545719D01*
X125522033Y-121498100D02*
X125283938Y-122212385D01*
X125283938Y-122212385D02*
X125902985Y-122212385D01*
X154883466Y-121512819D02*
X154883466Y-122227104D01*
X154883466Y-122227104D02*
X154835847Y-122369961D01*
X154835847Y-122369961D02*
X154740609Y-122465200D01*
X154740609Y-122465200D02*
X154597752Y-122512819D01*
X154597752Y-122512819D02*
X154502514Y-122512819D01*
X155264419Y-121512819D02*
X155883466Y-121512819D01*
X155883466Y-121512819D02*
X155550133Y-121893771D01*
X155550133Y-121893771D02*
X155692990Y-121893771D01*
X155692990Y-121893771D02*
X155788228Y-121941390D01*
X155788228Y-121941390D02*
X155835847Y-121989009D01*
X155835847Y-121989009D02*
X155883466Y-122084247D01*
X155883466Y-122084247D02*
X155883466Y-122322342D01*
X155883466Y-122322342D02*
X155835847Y-122417580D01*
X155835847Y-122417580D02*
X155788228Y-122465200D01*
X155788228Y-122465200D02*
X155692990Y-122512819D01*
X155692990Y-122512819D02*
X155407276Y-122512819D01*
X155407276Y-122512819D02*
X155312038Y-122465200D01*
X155312038Y-122465200D02*
X155264419Y-122417580D01*
X168949866Y-121563619D02*
X168949866Y-122277904D01*
X168949866Y-122277904D02*
X168902247Y-122420761D01*
X168902247Y-122420761D02*
X168807009Y-122516000D01*
X168807009Y-122516000D02*
X168664152Y-122563619D01*
X168664152Y-122563619D02*
X168568914Y-122563619D01*
X169378438Y-121658857D02*
X169426057Y-121611238D01*
X169426057Y-121611238D02*
X169521295Y-121563619D01*
X169521295Y-121563619D02*
X169759390Y-121563619D01*
X169759390Y-121563619D02*
X169854628Y-121611238D01*
X169854628Y-121611238D02*
X169902247Y-121658857D01*
X169902247Y-121658857D02*
X169949866Y-121754095D01*
X169949866Y-121754095D02*
X169949866Y-121849333D01*
X169949866Y-121849333D02*
X169902247Y-121992190D01*
X169902247Y-121992190D02*
X169330819Y-122563619D01*
X169330819Y-122563619D02*
X169949866Y-122563619D01*
X186368966Y-121545719D02*
X186368966Y-122260004D01*
X186368966Y-122260004D02*
X186321347Y-122402861D01*
X186321347Y-122402861D02*
X186226109Y-122498100D01*
X186226109Y-122498100D02*
X186083252Y-122545719D01*
X186083252Y-122545719D02*
X185988014Y-122545719D01*
X187368966Y-122545719D02*
X186797538Y-122545719D01*
X187083252Y-122545719D02*
X187083252Y-121545719D01*
X187083252Y-121545719D02*
X186988014Y-121688576D01*
X186988014Y-121688576D02*
X186892776Y-121783814D01*
X186892776Y-121783814D02*
X186797538Y-121831433D01*
X119678280Y-119325566D02*
X119725900Y-119373185D01*
X119725900Y-119373185D02*
X119773519Y-119516042D01*
X119773519Y-119516042D02*
X119773519Y-119611280D01*
X119773519Y-119611280D02*
X119725900Y-119754137D01*
X119725900Y-119754137D02*
X119630661Y-119849375D01*
X119630661Y-119849375D02*
X119535423Y-119896994D01*
X119535423Y-119896994D02*
X119344947Y-119944613D01*
X119344947Y-119944613D02*
X119202090Y-119944613D01*
X119202090Y-119944613D02*
X119011614Y-119896994D01*
X119011614Y-119896994D02*
X118916376Y-119849375D01*
X118916376Y-119849375D02*
X118821138Y-119754137D01*
X118821138Y-119754137D02*
X118773519Y-119611280D01*
X118773519Y-119611280D02*
X118773519Y-119516042D01*
X118773519Y-119516042D02*
X118821138Y-119373185D01*
X118821138Y-119373185D02*
X118868757Y-119325566D01*
X118868757Y-118944613D02*
X118821138Y-118896994D01*
X118821138Y-118896994D02*
X118773519Y-118801756D01*
X118773519Y-118801756D02*
X118773519Y-118563661D01*
X118773519Y-118563661D02*
X118821138Y-118468423D01*
X118821138Y-118468423D02*
X118868757Y-118420804D01*
X118868757Y-118420804D02*
X118963995Y-118373185D01*
X118963995Y-118373185D02*
X119059233Y-118373185D01*
X119059233Y-118373185D02*
X119202090Y-118420804D01*
X119202090Y-118420804D02*
X119773519Y-118992232D01*
X119773519Y-118992232D02*
X119773519Y-118373185D01*
X108299080Y-119274766D02*
X108346700Y-119322385D01*
X108346700Y-119322385D02*
X108394319Y-119465242D01*
X108394319Y-119465242D02*
X108394319Y-119560480D01*
X108394319Y-119560480D02*
X108346700Y-119703337D01*
X108346700Y-119703337D02*
X108251461Y-119798575D01*
X108251461Y-119798575D02*
X108156223Y-119846194D01*
X108156223Y-119846194D02*
X107965747Y-119893813D01*
X107965747Y-119893813D02*
X107822890Y-119893813D01*
X107822890Y-119893813D02*
X107632414Y-119846194D01*
X107632414Y-119846194D02*
X107537176Y-119798575D01*
X107537176Y-119798575D02*
X107441938Y-119703337D01*
X107441938Y-119703337D02*
X107394319Y-119560480D01*
X107394319Y-119560480D02*
X107394319Y-119465242D01*
X107394319Y-119465242D02*
X107441938Y-119322385D01*
X107441938Y-119322385D02*
X107489557Y-119274766D01*
X108394319Y-118322385D02*
X108394319Y-118893813D01*
X108394319Y-118608099D02*
X107394319Y-118608099D01*
X107394319Y-118608099D02*
X107537176Y-118703337D01*
X107537176Y-118703337D02*
X107632414Y-118798575D01*
X107632414Y-118798575D02*
X107680033Y-118893813D01*
D11*
%TO.C,J5*%
X109160300Y-122790900D02*
X111160300Y-122790900D01*
X109160300Y-124040900D02*
X109160300Y-122790900D01*
X109550300Y-123180900D02*
X109550300Y-130650900D01*
X109550300Y-130650900D02*
X118170300Y-130650900D01*
X110610300Y-124140900D02*
X113610300Y-124140900D01*
X110610300Y-125490900D02*
X111360300Y-125490900D01*
X110610300Y-129790900D02*
X110610300Y-125490900D01*
X110860300Y-125140900D02*
X110610300Y-124140900D01*
X111360300Y-125140900D02*
X110860300Y-125140900D01*
X111360300Y-125490900D02*
X111360300Y-125140900D01*
X111360300Y-129790900D02*
X110610300Y-129790900D01*
X112860300Y-125140900D02*
X112860300Y-125490900D01*
X112860300Y-125490900D02*
X113610300Y-125490900D01*
X113360300Y-125140900D02*
X112860300Y-125140900D01*
X113610300Y-124140900D02*
X113360300Y-125140900D01*
X113610300Y-125490900D02*
X113610300Y-129790900D01*
X113610300Y-129790900D02*
X112860300Y-129790900D01*
X114110300Y-124140900D02*
X117110300Y-124140900D01*
X114110300Y-125490900D02*
X114860300Y-125490900D01*
X114110300Y-129790900D02*
X114110300Y-125490900D01*
X114360300Y-125140900D02*
X114110300Y-124140900D01*
X114860300Y-125140900D02*
X114360300Y-125140900D01*
X114860300Y-125490900D02*
X114860300Y-125140900D01*
X114860300Y-129790900D02*
X114110300Y-129790900D01*
X116360300Y-125140900D02*
X116360300Y-125490900D01*
X116360300Y-125490900D02*
X117110300Y-125490900D01*
X116860300Y-125140900D02*
X116360300Y-125140900D01*
X117110300Y-124140900D02*
X116860300Y-125140900D01*
X117110300Y-125490900D02*
X117110300Y-129790900D01*
X117110300Y-129790900D02*
X116360300Y-129790900D01*
X118170300Y-123180900D02*
X109550300Y-123180900D01*
X118170300Y-130650900D02*
X118170300Y-123180900D01*
X111360300Y-129790900D02*
G75*
G02*
X112859947Y-129790744I750000J-1700000D01*
G01*
X114860300Y-129790900D02*
G75*
G02*
X116359947Y-129790744I750000J-1700000D01*
G01*
%TO.C,J4*%
X120488700Y-122790900D02*
X122488700Y-122790900D01*
X120488700Y-124040900D02*
X120488700Y-122790900D01*
X120878700Y-123180900D02*
X120878700Y-130650900D01*
X120878700Y-130650900D02*
X129498700Y-130650900D01*
X121938700Y-124140900D02*
X124938700Y-124140900D01*
X121938700Y-125490900D02*
X122688700Y-125490900D01*
X121938700Y-129790900D02*
X121938700Y-125490900D01*
X122188700Y-125140900D02*
X121938700Y-124140900D01*
X122688700Y-125140900D02*
X122188700Y-125140900D01*
X122688700Y-125490900D02*
X122688700Y-125140900D01*
X122688700Y-129790900D02*
X121938700Y-129790900D01*
X124188700Y-125140900D02*
X124188700Y-125490900D01*
X124188700Y-125490900D02*
X124938700Y-125490900D01*
X124688700Y-125140900D02*
X124188700Y-125140900D01*
X124938700Y-124140900D02*
X124688700Y-125140900D01*
X124938700Y-125490900D02*
X124938700Y-129790900D01*
X124938700Y-129790900D02*
X124188700Y-129790900D01*
X125438700Y-124140900D02*
X128438700Y-124140900D01*
X125438700Y-125490900D02*
X126188700Y-125490900D01*
X125438700Y-129790900D02*
X125438700Y-125490900D01*
X125688700Y-125140900D02*
X125438700Y-124140900D01*
X126188700Y-125140900D02*
X125688700Y-125140900D01*
X126188700Y-125490900D02*
X126188700Y-125140900D01*
X126188700Y-129790900D02*
X125438700Y-129790900D01*
X127688700Y-125140900D02*
X127688700Y-125490900D01*
X127688700Y-125490900D02*
X128438700Y-125490900D01*
X128188700Y-125140900D02*
X127688700Y-125140900D01*
X128438700Y-124140900D02*
X128188700Y-125140900D01*
X128438700Y-125490900D02*
X128438700Y-129790900D01*
X128438700Y-129790900D02*
X127688700Y-129790900D01*
X129498700Y-123180900D02*
X120878700Y-123180900D01*
X129498700Y-130650900D02*
X129498700Y-123180900D01*
X122688700Y-129790900D02*
G75*
G02*
X124188347Y-129790744I750000J-1700000D01*
G01*
X126188700Y-129790900D02*
G75*
G02*
X127688347Y-129790744I750000J-1700000D01*
G01*
%TO.C,J3*%
X150516800Y-122758000D02*
X152516800Y-122758000D01*
X150516800Y-124008000D02*
X150516800Y-122758000D01*
X150906800Y-123148000D02*
X150906800Y-130618000D01*
X150906800Y-130618000D02*
X159526800Y-130618000D01*
X151966800Y-124108000D02*
X154966800Y-124108000D01*
X151966800Y-125458000D02*
X152716800Y-125458000D01*
X151966800Y-129758000D02*
X151966800Y-125458000D01*
X152216800Y-125108000D02*
X151966800Y-124108000D01*
X152716800Y-125108000D02*
X152216800Y-125108000D01*
X152716800Y-125458000D02*
X152716800Y-125108000D01*
X152716800Y-129758000D02*
X151966800Y-129758000D01*
X154216800Y-125108000D02*
X154216800Y-125458000D01*
X154216800Y-125458000D02*
X154966800Y-125458000D01*
X154716800Y-125108000D02*
X154216800Y-125108000D01*
X154966800Y-124108000D02*
X154716800Y-125108000D01*
X154966800Y-125458000D02*
X154966800Y-129758000D01*
X154966800Y-129758000D02*
X154216800Y-129758000D01*
X155466800Y-124108000D02*
X158466800Y-124108000D01*
X155466800Y-125458000D02*
X156216800Y-125458000D01*
X155466800Y-129758000D02*
X155466800Y-125458000D01*
X155716800Y-125108000D02*
X155466800Y-124108000D01*
X156216800Y-125108000D02*
X155716800Y-125108000D01*
X156216800Y-125458000D02*
X156216800Y-125108000D01*
X156216800Y-129758000D02*
X155466800Y-129758000D01*
X157716800Y-125108000D02*
X157716800Y-125458000D01*
X157716800Y-125458000D02*
X158466800Y-125458000D01*
X158216800Y-125108000D02*
X157716800Y-125108000D01*
X158466800Y-124108000D02*
X158216800Y-125108000D01*
X158466800Y-125458000D02*
X158466800Y-129758000D01*
X158466800Y-129758000D02*
X157716800Y-129758000D01*
X159526800Y-123148000D02*
X150906800Y-123148000D01*
X159526800Y-130618000D02*
X159526800Y-123148000D01*
X152716800Y-129758000D02*
G75*
G02*
X154216447Y-129757844I750000J-1700000D01*
G01*
X156216800Y-129758000D02*
G75*
G02*
X157716447Y-129757844I750000J-1700000D01*
G01*
%TO.C,J2*%
X161083200Y-122808800D02*
X163083200Y-122808800D01*
X161083200Y-124058800D02*
X161083200Y-122808800D01*
X161473200Y-123198800D02*
X161473200Y-130668800D01*
X161473200Y-130668800D02*
X177093200Y-130668800D01*
X162533200Y-124158800D02*
X165533200Y-124158800D01*
X162533200Y-125508800D02*
X163283200Y-125508800D01*
X162533200Y-129808800D02*
X162533200Y-125508800D01*
X162783200Y-125158800D02*
X162533200Y-124158800D01*
X163283200Y-125158800D02*
X162783200Y-125158800D01*
X163283200Y-125508800D02*
X163283200Y-125158800D01*
X163283200Y-129808800D02*
X162533200Y-129808800D01*
X164783200Y-125158800D02*
X164783200Y-125508800D01*
X164783200Y-125508800D02*
X165533200Y-125508800D01*
X165283200Y-125158800D02*
X164783200Y-125158800D01*
X165533200Y-124158800D02*
X165283200Y-125158800D01*
X165533200Y-125508800D02*
X165533200Y-129808800D01*
X165533200Y-129808800D02*
X164783200Y-129808800D01*
X166033200Y-124158800D02*
X169033200Y-124158800D01*
X166033200Y-125508800D02*
X166783200Y-125508800D01*
X166033200Y-129808800D02*
X166033200Y-125508800D01*
X166283200Y-125158800D02*
X166033200Y-124158800D01*
X166783200Y-125158800D02*
X166283200Y-125158800D01*
X166783200Y-125508800D02*
X166783200Y-125158800D01*
X166783200Y-129808800D02*
X166033200Y-129808800D01*
X168283200Y-125158800D02*
X168283200Y-125508800D01*
X168283200Y-125508800D02*
X169033200Y-125508800D01*
X168783200Y-125158800D02*
X168283200Y-125158800D01*
X169033200Y-124158800D02*
X168783200Y-125158800D01*
X169033200Y-125508800D02*
X169033200Y-129808800D01*
X169033200Y-129808800D02*
X168283200Y-129808800D01*
X169533200Y-124158800D02*
X172533200Y-124158800D01*
X169533200Y-125508800D02*
X170283200Y-125508800D01*
X169533200Y-129808800D02*
X169533200Y-125508800D01*
X169783200Y-125158800D02*
X169533200Y-124158800D01*
X170283200Y-125158800D02*
X169783200Y-125158800D01*
X170283200Y-125508800D02*
X170283200Y-125158800D01*
X170283200Y-129808800D02*
X169533200Y-129808800D01*
X171783200Y-125158800D02*
X171783200Y-125508800D01*
X171783200Y-125508800D02*
X172533200Y-125508800D01*
X172283200Y-125158800D02*
X171783200Y-125158800D01*
X172533200Y-124158800D02*
X172283200Y-125158800D01*
X172533200Y-125508800D02*
X172533200Y-129808800D01*
X172533200Y-129808800D02*
X171783200Y-129808800D01*
X173033200Y-124158800D02*
X176033200Y-124158800D01*
X173033200Y-125508800D02*
X173783200Y-125508800D01*
X173033200Y-129808800D02*
X173033200Y-125508800D01*
X173283200Y-125158800D02*
X173033200Y-124158800D01*
X173783200Y-125158800D02*
X173283200Y-125158800D01*
X173783200Y-125508800D02*
X173783200Y-125158800D01*
X173783200Y-129808800D02*
X173033200Y-129808800D01*
X175283200Y-125158800D02*
X175283200Y-125508800D01*
X175283200Y-125508800D02*
X176033200Y-125508800D01*
X175783200Y-125158800D02*
X175283200Y-125158800D01*
X176033200Y-124158800D02*
X175783200Y-125158800D01*
X176033200Y-125508800D02*
X176033200Y-129808800D01*
X176033200Y-129808800D02*
X175283200Y-129808800D01*
X177093200Y-123198800D02*
X161473200Y-123198800D01*
X177093200Y-130668800D02*
X177093200Y-123198800D01*
X163283200Y-129808800D02*
G75*
G02*
X164782847Y-129808644I750000J-1700000D01*
G01*
X166783200Y-129808800D02*
G75*
G02*
X168282847Y-129808644I750000J-1700000D01*
G01*
X170283200Y-129808800D02*
G75*
G02*
X171782847Y-129808644I750000J-1700000D01*
G01*
X173783200Y-129808800D02*
G75*
G02*
X175282847Y-129808644I750000J-1700000D01*
G01*
%TO.C,J1*%
X178502300Y-122790900D02*
X180502300Y-122790900D01*
X178502300Y-124040900D02*
X178502300Y-122790900D01*
X178892300Y-123180900D02*
X178892300Y-130650900D01*
X178892300Y-130650900D02*
X194512300Y-130650900D01*
X179952300Y-124140900D02*
X182952300Y-124140900D01*
X179952300Y-125490900D02*
X180702300Y-125490900D01*
X179952300Y-129790900D02*
X179952300Y-125490900D01*
X180202300Y-125140900D02*
X179952300Y-124140900D01*
X180702300Y-125140900D02*
X180202300Y-125140900D01*
X180702300Y-125490900D02*
X180702300Y-125140900D01*
X180702300Y-129790900D02*
X179952300Y-129790900D01*
X182202300Y-125140900D02*
X182202300Y-125490900D01*
X182202300Y-125490900D02*
X182952300Y-125490900D01*
X182702300Y-125140900D02*
X182202300Y-125140900D01*
X182952300Y-124140900D02*
X182702300Y-125140900D01*
X182952300Y-125490900D02*
X182952300Y-129790900D01*
X182952300Y-129790900D02*
X182202300Y-129790900D01*
X183452300Y-124140900D02*
X186452300Y-124140900D01*
X183452300Y-125490900D02*
X184202300Y-125490900D01*
X183452300Y-129790900D02*
X183452300Y-125490900D01*
X183702300Y-125140900D02*
X183452300Y-124140900D01*
X184202300Y-125140900D02*
X183702300Y-125140900D01*
X184202300Y-125490900D02*
X184202300Y-125140900D01*
X184202300Y-129790900D02*
X183452300Y-129790900D01*
X185702300Y-125140900D02*
X185702300Y-125490900D01*
X185702300Y-125490900D02*
X186452300Y-125490900D01*
X186202300Y-125140900D02*
X185702300Y-125140900D01*
X186452300Y-124140900D02*
X186202300Y-125140900D01*
X186452300Y-125490900D02*
X186452300Y-129790900D01*
X186452300Y-129790900D02*
X185702300Y-129790900D01*
X186952300Y-124140900D02*
X189952300Y-124140900D01*
X186952300Y-125490900D02*
X187702300Y-125490900D01*
X186952300Y-129790900D02*
X186952300Y-125490900D01*
X187202300Y-125140900D02*
X186952300Y-124140900D01*
X187702300Y-125140900D02*
X187202300Y-125140900D01*
X187702300Y-125490900D02*
X187702300Y-125140900D01*
X187702300Y-129790900D02*
X186952300Y-129790900D01*
X189202300Y-125140900D02*
X189202300Y-125490900D01*
X189202300Y-125490900D02*
X189952300Y-125490900D01*
X189702300Y-125140900D02*
X189202300Y-125140900D01*
X189952300Y-124140900D02*
X189702300Y-125140900D01*
X189952300Y-125490900D02*
X189952300Y-129790900D01*
X189952300Y-129790900D02*
X189202300Y-129790900D01*
X190452300Y-124140900D02*
X193452300Y-124140900D01*
X190452300Y-125490900D02*
X191202300Y-125490900D01*
X190452300Y-129790900D02*
X190452300Y-125490900D01*
X190702300Y-125140900D02*
X190452300Y-124140900D01*
X191202300Y-125140900D02*
X190702300Y-125140900D01*
X191202300Y-125490900D02*
X191202300Y-125140900D01*
X191202300Y-129790900D02*
X190452300Y-129790900D01*
X192702300Y-125140900D02*
X192702300Y-125490900D01*
X192702300Y-125490900D02*
X193452300Y-125490900D01*
X193202300Y-125140900D02*
X192702300Y-125140900D01*
X193452300Y-124140900D02*
X193202300Y-125140900D01*
X193452300Y-125490900D02*
X193452300Y-129790900D01*
X193452300Y-129790900D02*
X192702300Y-129790900D01*
X194512300Y-123180900D02*
X178892300Y-123180900D01*
X194512300Y-130650900D02*
X194512300Y-123180900D01*
X180702300Y-129790900D02*
G75*
G02*
X182201947Y-129790744I750000J-1700000D01*
G01*
X184202300Y-129790900D02*
G75*
G02*
X185701947Y-129790744I750000J-1700000D01*
G01*
X187702300Y-129790900D02*
G75*
G02*
X189201947Y-129790744I750000J-1700000D01*
G01*
X191202300Y-129790900D02*
G75*
G02*
X192701947Y-129790744I750000J-1700000D01*
G01*
%TO.C,C2*%
X121577700Y-118897648D02*
X121577700Y-119420152D01*
X120107700Y-118897648D02*
X120107700Y-119420152D01*
%TO.C,C1*%
X110198500Y-118897648D02*
X110198500Y-119420152D01*
X108728500Y-118897648D02*
X108728500Y-119420152D01*
%TD*%
%LPC*%
D12*
%TO.C,REF\u002A\u002A*%
X105410000Y-133096000D03*
%TD*%
%TO.C,REF\u002A\u002A*%
X198628000Y-133096000D03*
%TD*%
%TO.C,REF\u002A\u002A*%
X139852400Y-120091200D03*
%TD*%
D13*
%TO.C,J10*%
X172968800Y-119126000D03*
X170428800Y-119126000D03*
X167888800Y-119126000D03*
D14*
X165348800Y-119126000D03*
%TD*%
%TO.C,J9*%
X112562300Y-119057300D03*
D13*
X115102300Y-119057300D03*
%TD*%
%TO.C,J8*%
X126578100Y-119057300D03*
D14*
X124038100Y-119057300D03*
%TD*%
D13*
%TO.C,J7*%
X190698000Y-119126000D03*
X188158000Y-119126000D03*
X185618000Y-119126000D03*
D14*
X183078000Y-119126000D03*
%TD*%
D13*
%TO.C,J6*%
X156408000Y-119126000D03*
D14*
X153868000Y-119126000D03*
%TD*%
D15*
%TO.C,J5*%
X112110300Y-127540900D03*
D16*
X115610300Y-127540900D03*
%TD*%
D15*
%TO.C,J4*%
X123438700Y-127540900D03*
D16*
X126938700Y-127540900D03*
%TD*%
D15*
%TO.C,J3*%
X153466800Y-127508000D03*
D16*
X156966800Y-127508000D03*
%TD*%
D15*
%TO.C,J2*%
X164033200Y-127558800D03*
D16*
X167533200Y-127558800D03*
X171033200Y-127558800D03*
X174533200Y-127558800D03*
%TD*%
D15*
%TO.C,J1*%
X181452300Y-127540900D03*
D16*
X184952300Y-127540900D03*
X188452300Y-127540900D03*
X191952300Y-127540900D03*
%TD*%
D17*
%TO.C,C2*%
X120842700Y-118121400D03*
X120842700Y-120196400D03*
%TD*%
%TO.C,C1*%
X109463500Y-118121400D03*
X109463500Y-120196400D03*
%TD*%
%LPD*%
M02*
