M48
; DRILL file {KiCad 8.0.3} date 2024-08-02T17:34:24+0100
; FORMAT={-:-/ absolute / inch / decimal}
; #@! TF.CreationDate,2024-08-02T17:34:24+01:00
; #@! TF.GenerationSoftware,Kicad,Pcbnew,8.0.3
; #@! TF.FileFunction,Plated,1,2,PTH
FMAT,2
INCH
; #@! TA.AperFunction,Plated,PTH,ViaDrill
T1C0.0197
; #@! TA.AperFunction,Plated,PTH,ComponentDrill
T2C0.0394
; #@! TA.AperFunction,Plated,PTH,ComponentDrill
T3C0.0472
%
G90
G05
T1
X4.2576Y-4.7373
X4.7036Y-4.7373
T2
X4.4316Y-4.6873
X4.5316Y-4.6873
X4.8834Y-4.6873
X4.9834Y-4.6873
X6.0578Y-4.69
X6.1578Y-4.69
X6.5098Y-4.69
X6.6098Y-4.69
X6.7098Y-4.69
X6.8098Y-4.69
X7.2078Y-4.69
X7.3078Y-4.69
X7.4078Y-4.69
X7.5078Y-4.69
T3
X4.4138Y-5.0213
X4.5516Y-5.0213
X4.8598Y-5.0213
X4.9976Y-5.0213
X6.042Y-5.02
X6.1798Y-5.02
X6.458Y-5.022
X6.5958Y-5.022
X6.7336Y-5.022
X6.8714Y-5.022
X7.1438Y-5.0213
X7.2816Y-5.0213
X7.4194Y-5.0213
X7.5572Y-5.0213
M30
